<?xml version="1.0" encoding="UTF-8"?>
<svg width="14px" height="18px" viewBox="0 0 14 18" version="1.1" xmlns="http://www.w3.org/2000/svg" xmlns:xlink="http://www.w3.org/1999/xlink">
    <title>Shape</title>
    <g id="Page-1" stroke="none" stroke-width="1" fill="none" fill-rule="evenodd">
        <g id="arrow_down" transform="translate(1.000000, 1.000000)" fill="#FFFFFF" fill-rule="nonzero">
            <path d="M6,-1 C6.55228475,-1 7,-0.55228475 7,0 L7,13.584 L11.2928932,9.29289322 C11.6834175,8.90236893 12.3165825,8.90236893 12.7071068,9.29289322 C13.0976311,9.68341751 13.0976311,10.3165825 12.7071068,10.7071068 L6.70710678,16.7071068 C6.67171273,16.7425008 6.63432558,16.774687 6.59530661,16.8036654 L6.4840621,16.8753288 L6.37133602,16.9287745 L6.22929083,16.9735893 L6.11493815,16.9934593 L6,17 L5.88337887,16.9932723 L5.77070917,16.9735893 L5.6583843,16.9401293 L5.57677845,16.9063266 L5.47929125,16.8540045 L5.38710056,16.7902954 C5.35030318,16.7612383 5.32077858,16.7349921 5.29289322,16.7071068 L-0.707106781,10.7071068 C-1.09763107,10.3165825 -1.09763107,9.68341751 -0.707106781,9.29289322 C-0.316582489,8.90236893 0.316582489,8.90236893 0.707106781,9.29289322 L5,13.585 L5,0 C5,-0.55228475 5.44771525,-1 6,-1 Z" id="Shape"></path>
        </g>
    </g>
</svg>