<svg width="40" height="48" viewBox="0 0 40 48" fill="none" xmlns="http://www.w3.org/2000/svg">
<path fill-rule="evenodd" clip-rule="evenodd" d="M19.999 2C17.6523 2 15.4611 2.67671 13.61 3.84527C13.5474 3.89728 13.48 3.94042 13.4095 3.9747C10.1522 6.12254 7.99902 9.81403 7.99902 14C7.99902 14.2206 8.005 14.4399 8.01681 14.6576C8.04513 14.7697 8.0543 14.8886 8.04111 15.01C8.30405 18.1523 9.78245 20.9538 12.0036 22.9419C12.0315 18.0065 15.6086 14 20.0034 14C24.3958 14 27.9716 18.0023 28.0032 22.9341C30.2281 20.9387 31.7059 18.1263 31.96 14.9732C31.9531 14.8774 31.96 14.7834 31.9792 14.6934C31.9924 14.4639 31.999 14.2327 31.999 14C31.999 9.80504 29.8366 6.10669 26.5676 3.96089C26.5155 3.93356 26.4653 3.9013 26.4177 3.86408C24.5604 2.68397 22.3583 2 19.999 2ZM26.9124 1.82937C24.8715 0.665437 22.5114 0 19.999 0C17.4882 0 15.1294 0.66462 13.0894 1.82723C11.6587 0.643846 9.87996 0 8.0034 0C3.59139 0 0.00339508 3.588 0.00339508 8C0.00339508 11.6835 2.57573 14.8785 6.10672 15.7408C6.31357 17.4011 6.81231 18.972 7.54978 20.4004C4.03271 21.5917 1.74369 23.4071 0.740074 25.8024C-0.602824 29.0082 0.895267 32.0471 1.10483 32.4448C0.433334 33.4017 0.0416904 34.6013 0.00174512 35.974C-0.0262549 37.048 0.161745 38.178 0.567745 39.33C2.26775 44.192 7.20375 48 11.8037 48C14.8535 48 17.1061 46.2795 17.787 43.5826C18.3736 43.8126 19.1217 44.0002 20.0018 44.0002C20.8802 44.0002 21.6272 43.8134 22.2131 43.584C22.8949 46.2795 25.1463 48 28.1977 48C32.7977 48 37.7337 44.192 39.4337 39.33C39.8377 38.178 40.0277 37.048 39.9977 35.972C39.9586 34.5996 39.5672 33.4002 38.8956 32.4435C39.1103 32.0389 40.6021 29.0059 39.2611 25.8048C38.2572 23.4068 35.9669 21.5924 32.4477 20.4015C33.1853 18.9732 33.6841 17.4025 33.8911 15.7424C37.4255 14.8825 40.001 11.6858 40.001 8C40.001 3.588 36.413 0 32.001 0C30.1233 0 28.3436 0.644621 26.9124 1.82937ZM22.0061 41.4768C22.0437 40.5686 22.2305 39.6269 22.5677 38.67C23.8022 35.1393 26.7432 32.1645 30.0227 30.8C30.024 30.794 30.0253 30.788 30.0266 30.7819C30.0285 30.7733 30.0306 30.7646 30.0327 30.756C30.2794 29.7657 28.3615 27.6849 26.6521 26.3154C24.6719 27.3896 22.4053 28 19.999 28C17.594 28 15.3284 27.3902 13.3488 26.317C11.6397 27.6864 9.72251 29.7667 9.96913 30.7569C9.97273 30.7713 9.976 30.7857 9.97895 30.8001C13.2584 32.1646 16.1993 35.1394 17.4337 38.67C17.7692 39.6265 17.9571 40.5678 17.994 41.4745C18.3762 41.6969 19.0684 42.0002 20.0018 42.0002C20.9324 42.0002 21.623 41.6987 22.0061 41.4768ZM37.4091 26.5588C38.1588 28.3299 37.688 30.1073 37.3611 30.9735C36.3832 30.347 35.1742 30 33.8037 30C33.2115 30 32.6137 30.0631 32.0179 30.1835C31.7462 28.2906 29.7662 26.321 28.4188 25.178C29.549 24.3246 30.5462 23.304 31.3734 22.1534C34.5633 23.1515 36.5928 24.6315 37.4091 26.5588ZM2.59207 26.5564C3.40816 24.6297 5.43499 23.1499 8.6247 22.1535C9.45252 23.305 10.4506 24.3262 11.5818 25.18C10.2346 26.323 8.2561 28.2915 7.98405 30.1836C7.38813 30.0632 6.79015 30 6.19775 30C4.82752 30 3.61861 30.3469 2.6407 30.9734C2.31304 30.1062 1.84258 28.3287 2.59207 26.5564ZM28.6671 3.01378C31.822 5.5084 33.8818 9.33058 33.9942 13.6292C36.345 12.7991 38.001 10.5565 38.001 8C38.001 4.692 35.311 2 32.001 2C30.7973 2 29.6463 2.35415 28.6671 3.01378ZM8.0034 2C9.20569 2 10.3554 2.35332 11.3339 3.01147C8.17782 5.50561 6.11696 9.32794 6.00392 13.6269C3.65645 12.7951 2.0034 10.5542 2.0034 8C2.0034 4.692 4.6934 2 8.0034 2ZM19.999 26C17.8833 26 15.8939 25.4499 14.1663 24.4853C14.0559 23.942 14.0034 23.4618 14.0034 23C14.0034 20.7617 14.9089 18.7644 16.3155 17.4819C17.0108 18.9922 18.6985 19.7508 19.7955 19.978C19.8635 19.994 19.9315 20 19.9995 20C20.0675 20 20.1355 19.994 20.2035 19.978C21.3015 19.7506 22.9915 18.9907 23.6855 17.4774C25.0952 18.7597 26.0034 20.7591 26.0034 23C26.0034 23.4603 25.9512 23.9388 25.8416 24.4798C24.1117 25.4478 22.1188 26 19.999 26ZM21.9517 16.379C21.3405 16.1334 20.685 16 20.0034 16C19.319 16 18.6611 16.1343 18.0481 16.3815C18.3048 17.3584 19.5111 17.8163 19.9995 17.966C20.4866 17.8179 21.6963 17.3594 21.9517 16.379ZM2.00111 36.03C2.07111 33.544 3.67911 32 6.19711 32C9.93711 32 14.1311 35.288 15.5471 39.33C15.8691 40.252 16.0211 41.142 15.9971 41.97C15.9271 44.456 14.3211 46 11.8031 46C8.06311 46 3.86911 42.712 2.45311 38.67C2.13111 37.748 1.97911 36.858 2.00111 36.03ZM7.99902 40C7.99902 38.898 8.89502 38 9.99902 38C11.103 38 11.999 38.898 11.999 40C11.999 41.102 11.103 42 9.99902 42C8.89502 42 7.99902 41.102 7.99902 40ZM5.99902 40C5.99902 42.206 7.79302 44 9.99902 44C12.205 44 13.999 42.206 13.999 40C13.999 37.794 12.205 36 9.99902 36C7.79302 36 5.99902 37.794 5.99902 40ZM14.999 10C14.449 10 13.999 10.448 13.999 11C13.999 11.552 14.449 12 14.999 12C15.549 12 15.999 11.552 15.999 11C15.999 10.448 15.549 10 14.999 10ZM14.999 14C13.345 14 11.999 12.654 11.999 11C11.999 9.346 13.345 8 14.999 8C16.653 8 17.999 9.346 17.999 11C17.999 12.654 16.653 14 14.999 14ZM23.999 11C23.999 10.448 24.449 10 24.999 10C25.549 10 25.999 10.448 25.999 11C25.999 11.552 25.549 12 24.999 12C24.449 12 23.999 11.552 23.999 11ZM21.999 11C21.999 12.654 23.345 14 24.999 14C26.653 14 27.999 12.654 27.999 11C27.999 9.346 26.653 8 24.999 8C23.345 8 21.999 9.346 21.999 11ZM24.0011 41.972C23.9791 41.142 24.1311 40.252 24.4531 39.33C25.8691 35.288 30.0631 32 33.8031 32C36.3211 32 37.9271 33.544 37.9971 36.028C38.0211 36.858 37.8691 37.746 37.5471 38.67C36.1311 42.712 31.9371 46 28.1971 46C25.6791 46 24.0731 44.456 24.0011 41.972ZM29.999 38C28.895 38 27.999 38.898 27.999 40C27.999 41.102 28.895 42 29.999 42C31.103 42 31.999 41.102 31.999 40C31.999 38.898 31.103 38 29.999 38ZM29.999 44C27.793 44 25.999 42.206 25.999 40C25.999 37.794 27.793 36 29.999 36C32.205 36 33.999 37.794 33.999 40C33.999 42.206 32.205 44 29.999 44Z" fill="#FFCC48"/>
</svg>
