<svg width="1012" height="727" viewBox="0 0 1012 727" fill="none" xmlns="http://www.w3.org/2000/svg">
<path fill-rule="evenodd" clip-rule="evenodd" d="M343.526 396.839C341.516 394.578 339.755 391.437 340.946 388.667C341.226 388.017 341.666 387.396 341.676 386.696C341.676 385.806 341.016 385.076 340.496 384.356C338.615 381.735 338.375 378.324 338.215 375.093C337.995 370.742 337.775 366.401 337.555 362.049C337.415 359.379 337.285 356.698 336.885 354.057C335.574 345.255 331.243 336.973 324.921 330.731C322 327.84 318.299 323.439 314.618 327.22C311.838 330.071 312.208 335.462 313.708 338.803C315.869 343.604 319.94 347.355 321.99 352.197C323.601 356.018 323.851 360.239 324.411 364.34C326.512 379.714 333.173 394.038 339.745 408.082C342.886 407.512 345.897 406.202 348.448 404.291C347.978 401.31 345.537 399.1 343.526 396.849V396.839ZM443.724 0.00976562H447.265C447.235 0.119796 447.205 0.229828 447.175 0.339858C445.925 5.17119 447.875 10.6427 451.826 13.6935C455.777 16.7444 461.489 17.2545 465.98 15.0639C468.121 14.0236 470.071 12.4032 472.442 12.1131C475.663 11.723 478.574 13.8936 481.094 15.9442C485.285 19.3551 489.827 23.4562 489.997 28.8477C490.177 34.6293 485.275 39.1605 480.694 42.6715C477.933 44.7821 474.842 48.4631 476.953 51.2239C478.303 52.9944 480.904 52.9443 483.105 53.2644C485.816 53.6545 488.396 54.8849 490.417 56.7254C491.057 57.3055 491.777 58.0057 492.637 57.8957C493.418 57.8057 493.978 57.0555 494.748 56.8654C495.948 56.5653 496.999 57.6857 498.169 58.1058C499.889 58.7259 501.86 57.6957 502.91 56.1952C503.961 54.6948 504.301 52.8243 504.621 51.0238C502.61 49.3333 500.39 46.7026 501.69 44.412C504.561 46.8126 509.212 46.7026 511.983 44.1819C517.104 46.1925 519.595 53.0844 516.934 57.9057C515.654 59.4161 513.153 58.3258 511.813 56.8854C510.462 55.435 509.122 53.5345 507.151 53.5445C505.161 53.5445 503.77 55.5751 503.3 57.5056C502.83 59.4361 502.9 61.5167 502.06 63.3172C501.22 65.1177 498.879 66.4781 497.239 65.3677C497.019 66.4781 496.789 67.5984 496.568 68.7087C494.158 66.8782 490.957 69.5689 489.186 72.0296C487.416 74.4803 484.315 77.241 481.834 75.5205C483.805 80.1418 484.455 85.3132 483.715 90.2846C483.265 93.2654 482.164 96.3863 479.684 98.0868C477.463 99.6072 474.592 99.6972 472.012 100.477C469.101 101.358 466.41 103.258 465.04 105.979C463.669 108.69 463.81 112.231 465.77 114.571C466.36 115.271 467.1 115.872 467.45 116.712C468.151 118.372 466.72 120.513 464.92 120.513C462.099 119.983 460.119 117.212 459.648 114.381C459.178 111.55 459.908 108.67 460.759 105.919C461.429 103.728 462.209 101.508 463.629 99.7172C467.07 95.366 474.132 93.5355 474.912 88.044C475.643 82.9326 470.241 79.2816 465.61 76.9909C464.32 76.3508 463.029 75.7106 461.729 75.0704C460.349 75.4905 458.968 75.9007 457.578 76.3208C455.007 68.8087 455.277 60.3664 458.328 53.0344C458.758 51.9941 459.278 50.9438 460.158 50.2536C462.699 48.2631 466.27 50.2236 469.341 51.2139C469.891 51.3939 470.511 51.5239 471.012 51.2339C471.602 50.8838 471.722 50.0835 471.772 49.4034C472.002 46.5426 472.232 43.6718 472.462 40.811C467.581 40.0008 462.579 39.1505 458.328 36.6198C456.427 35.4895 454.597 33.8191 454.367 31.6185C454.067 28.7277 457.378 26.1069 460.118 27.0772C458.078 22.576 453.627 19.2451 448.735 18.5749C446.965 18.3348 445.034 18.3648 443.604 17.3045C441.373 15.6541 441.503 12.3232 441.933 9.58241C442.434 6.39153 443.034 3.21065 443.744 0.0497852L443.724 0.00976562ZM139.3 726.98H0.00195312V267.223C0.532099 267.363 1.05218 267.503 1.56232 267.613C10.9149 269.714 19.6873 269.394 29.0999 270.044C22.288 269.574 15.5362 268.244 9.06438 266.093C22.5181 266.673 35.9717 267.243 49.4154 267.823C53.9667 268.014 59.6183 267.583 61.4588 263.412C63.4393 258.941 59.1182 254.09 54.5869 252.259C50.0657 250.429 44.8142 249.969 41.0932 246.808C49.8156 249.348 59.1082 247.378 68.1407 246.388C77.1732 245.397 87.2359 245.737 94.0278 251.769C94.4479 252.139 94.868 252.569 94.928 253.119C95.048 254.11 94.0178 254.79 93.2175 255.38C90.3167 257.561 89.2364 261.872 90.8269 265.133C92.4173 268.394 96.5084 270.214 99.9794 269.164C99.9794 270.504 99.9794 271.835 99.9794 273.175C110.522 271.204 121.665 272.595 131.398 277.086C137.27 279.797 142.901 283.678 149.353 284.108C150.623 284.188 152.274 283.848 152.474 282.588C152.634 281.607 151.764 280.787 151.003 280.137C147.492 277.126 144.622 273.365 142.651 269.174C141.511 266.753 140.931 263.322 143.161 261.842C144.132 261.202 145.372 261.152 146.532 261.132C150.473 261.052 154.414 260.972 158.355 260.902C162.477 260.822 167.738 259.861 168.558 255.81C169.108 253.129 167.228 250.399 167.768 247.728C168.278 245.197 170.949 243.507 173.53 243.447C176.11 243.387 178.561 244.637 180.622 246.188C181.712 247.008 182.682 247.918 183.592 248.888C185.103 249.088 186.573 250.159 188.154 250.329C191.385 250.669 193.765 247.128 194.105 243.897C194.215 242.827 193.935 241.116 193.825 239.446C190.624 238.175 187.464 236.625 184.423 235.385C182.432 234.574 179.961 233.834 178.331 235.224C178.261 231.463 178.221 227.572 179.681 224.111C181.142 220.64 184.543 217.7 188.294 218.01C189.694 218.12 191.064 218.67 192.465 218.53C194.345 218.34 195.856 216.959 197.596 216.219C199.717 215.319 202.108 215.419 204.418 215.359C221.753 214.909 237.217 205.086 253.422 198.915C256.582 197.704 260.053 196.624 263.304 197.584C263.624 207.057 263.794 217.12 258.923 225.242C260.834 224.612 263.134 226.162 263.264 228.173C253.332 234.584 244.179 242.196 236.067 250.799C235.917 249.258 234.416 248.158 232.916 247.788C231.416 247.408 229.825 247.538 228.295 247.298C226.564 247.028 224.954 246.308 223.323 245.667C217.222 243.257 211.27 242.486 204.928 241.956C204.118 242.647 202.988 243.107 201.938 243.327C199.987 243.727 197.736 243.897 196.496 245.457C194.635 247.798 196.606 251.399 199.237 252.809C201.867 254.22 205.018 254.41 207.669 255.79C208.129 256.03 208.549 256.3 208.959 256.59C209.139 256.17 209.329 255.76 209.53 255.34C214.351 256.42 219.172 257.501 224.004 258.581C225.854 259.001 227.875 259.521 228.955 261.082C229.515 261.892 229.765 262.912 230.415 263.652C231.336 264.703 232.846 264.983 233.976 265.793C235.247 266.703 235.937 268.204 236.567 269.624L246.89 292.77C247.58 294.331 248.18 296.411 246.9 297.532C246.32 298.042 245.499 298.182 244.729 298.262C240.718 298.702 236.497 298.472 232.856 300.212C226.754 303.113 224.274 310.545 223.853 317.287C223.553 322.088 223.944 327.05 222.313 331.571C220.683 336.092 216.121 340.093 211.43 339.023C215.471 336.472 217.622 331.251 216.552 326.6C213.091 327.34 211.38 331.101 209.31 333.982C208.349 335.322 207.219 336.522 205.959 337.573C194.425 340.203 182.822 342.764 171.009 343.464C158.776 344.184 146.192 342.814 135.089 337.633C133.489 336.892 132.088 336.392 130.378 336.702C129.257 342.154 139.3 344.294 143.201 344.855C152.254 346.135 161.376 346.725 170.509 347.245C177.101 347.615 183.772 347.945 190.264 346.705C194.645 345.865 198.967 344.204 202.578 341.634C207.729 342.464 213.06 342.814 217.602 340.433C219.982 339.193 221.953 337.283 224.364 336.092C230.395 333.131 238.487 335.032 243.469 330.521C237.547 330.801 231.626 331.091 225.694 331.371C226.114 324.749 226.544 318.127 226.964 311.506C226.994 310.965 227.054 310.365 227.455 309.995C227.945 309.525 228.725 309.615 229.415 309.555C231.686 309.375 233.316 307.414 235.147 306.064C239.438 302.903 248.12 302.773 250.361 308.235C252.951 314.536 249.461 326.21 248.38 332.641C247.71 336.662 247.01 340.754 245.129 344.375C242.349 349.736 237.217 353.497 231.516 355.658C231.496 356.278 231.496 356.888 231.516 357.458C231.986 372.242 222.173 385.136 212.86 396.629L192.115 422.226C189.504 425.457 186.723 429.618 188.354 433.439C189.904 437.09 194.925 438.12 198.607 436.63C202.288 435.15 204.918 431.909 207.379 428.798C210 425.487 212.76 421.746 212.47 417.535C212.28 414.734 211.35 410.783 214.061 410.013C214.931 409.773 215.851 410.053 216.752 410.013C220.933 409.863 221.773 404.111 221.823 399.92C221.873 395.729 224.804 390.077 228.565 391.918C231.036 393.988 234.536 394.308 237.357 395.869C239.118 396.839 240.578 398.269 242.008 399.69C245.359 403.001 248.72 406.312 252.071 409.622C254.842 412.363 257.823 415.604 257.623 419.495C257.523 421.486 256.573 423.316 255.962 425.207C254.112 430.918 255.302 437.1 255.762 443.092C256.733 455.645 254.432 468.209 252.131 480.592C251.741 482.713 250.911 485.283 248.78 485.613C247.33 485.843 246 484.853 244.869 483.923C232.076 473.47 219.292 463.017 206.499 452.564C201.607 456.915 201.527 464.408 201.827 470.949C201.908 472.69 202.038 474.57 203.168 475.891C204.318 477.241 206.189 477.651 207.849 478.291C217.912 482.162 221.073 495.156 229.815 501.458C232.366 503.298 235.607 504.869 236.357 507.92C236.747 509.52 236.337 511.19 235.897 512.771C233.476 521.393 230.075 529.736 225.764 537.588C225.254 536.397 224.424 535.437 223.423 534.667C225.854 542.509 227.214 550.681 227.455 558.884C227.655 558.954 227.865 559.024 228.065 559.094C229.125 559.494 230.335 560.104 230.495 561.224C230.625 562.104 230.025 562.915 229.465 563.605C226.884 566.806 224.304 569.997 221.733 573.198C218.552 571.267 216.021 568.296 214.631 564.855C201.477 572.637 190.534 584.121 183.382 597.634C181.822 600.595 180.482 604.386 182.442 607.097C184.503 609.958 189.114 609.608 191.895 607.457C194.685 605.306 196.196 601.945 197.956 598.895C200.867 593.843 204.708 589.312 209.229 585.611C210.34 590.312 211.29 595.814 208.209 599.535C205.818 602.426 201.007 605.126 202.788 608.427C203.998 610.668 207.489 610.608 208.989 612.658C210.62 614.889 208.709 618.28 206.089 619.15C203.468 620.02 200.617 619.18 197.976 618.35C198.576 620.931 199.677 623.381 201.157 625.582C201.187 625.602 202.428 631.714 202.238 637.585C202.077 642.677 198.867 647.538 203.058 651.569C206.069 654.46 210.12 656.49 214.611 658.111C215.061 660.862 221.233 667.353 224.604 666.373C225.394 670.304 216.612 678.907 216.912 682.418C217.192 685.588 217.222 688.509 216.952 691.05C216.622 694.091 202.128 701.503 197.826 700.833C196.326 700.603 188.004 696.641 188.454 694.211C189.004 691.25 192.045 685.088 188.274 685.859C182.132 687.119 175.87 683.688 172.979 684.928C170.989 685.778 171.219 687.359 168.918 687.509C163.047 687.889 155.975 689.079 152.634 691.96C150.793 693.551 147.583 698.512 146.512 699.512C143.661 702.163 147.542 704.824 141.201 710.445C138.57 712.776 139.33 719.688 139.33 726.93L139.3 726.98ZM336.985 218.77C338.085 219.08 339.255 219.49 339.895 220.44C340.506 221.331 340.516 222.501 341.016 223.451C341.916 225.142 344.057 225.652 345.937 225.982C355.25 227.632 364.942 229.263 374.055 226.712C383.157 224.161 391.47 216.099 391.019 206.657C379.546 203.636 369.273 206.667 361.151 195.834C355.16 186.311 357.12 172.157 348.268 165.205C345.147 162.755 341.186 161.714 337.345 160.724C337.835 162.494 336.374 164.525 334.544 164.635C332.713 164.745 331.023 162.895 331.303 161.084C321.24 163.385 310.837 164.195 300.545 163.465L299.244 155.673C299.084 154.702 298.894 153.672 298.224 152.942C297.554 152.212 296.233 152.002 295.623 152.782C295.563 153.742 295.503 154.702 295.433 155.653C294.063 155.633 292.582 155.653 291.452 156.423C289.982 157.423 289.532 159.364 288.451 160.764C287.371 162.174 284.65 162.655 284.16 160.954C282.82 161.244 282.92 163.435 284.07 164.185C285.23 164.935 286.731 164.705 288.091 164.545C289.462 164.385 291.042 164.405 291.942 165.445C293.523 167.266 291.552 169.947 289.712 171.507C286.831 173.938 283.96 176.378 281.079 178.809C279.149 177.559 277.098 176.508 274.968 175.658C273.917 175.238 272.637 174.898 271.717 175.568C270.856 176.188 270.716 177.399 270.646 178.459C269.686 194.383 268.716 210.298 267.756 226.212C267.726 226.782 267.706 227.432 268.106 227.842C268.466 228.233 269.046 228.283 269.576 228.303C275.958 228.503 282.37 225.952 286.871 221.441C289.391 223.951 293.363 224.442 296.864 223.761C300.354 223.081 303.565 221.421 306.886 220.14C316.419 216.469 327.152 215.989 336.975 218.79L336.985 218.77ZM424.799 617.95C424.639 618.67 424.549 619.44 424.119 620.05C423.538 620.871 422.498 621.211 421.518 621.431C420.107 621.741 418.657 621.911 417.207 621.941C416.717 621.951 416.166 621.971 415.856 622.351C415.666 622.571 415.616 622.871 415.566 623.161C415.026 626.242 412.936 630.753 415.866 632.404C416.326 632.664 415.626 639.376 416.787 644.027C417.077 645.217 414.256 646.978 414.156 648.178C413.636 654.16 412.795 660.602 413.846 660.682C414.826 660.752 423.058 661.022 424.839 658.291C426.829 655.24 425.979 652.419 426.819 648.088C428.1 641.526 432.861 632.944 433.641 632.954C435.082 626.332 432.821 619.36 429.2 613.299C427.79 614.829 425.239 615.929 424.809 617.96L424.799 617.95ZM437.772 534.827L437.892 544.8C437.962 550.461 437.442 557.213 432.531 560.014C429.56 561.714 425.879 561.334 422.488 560.914C420.098 560.614 417.567 560.254 415.726 558.714C413.886 557.163 413.206 553.992 415.006 552.402C415.906 551.602 417.177 551.391 418.277 550.891C420.738 549.781 422.368 547.05 422.158 544.35C421.958 541.659 419.937 539.198 417.337 538.468C415.036 537.828 412.345 538.398 410.425 536.988C409.735 536.487 409.225 535.767 408.734 535.067C406.934 532.526 405.083 529.836 404.753 526.735C404.643 525.694 404.703 524.624 404.353 523.644C403.613 521.563 401.132 520.503 398.932 520.743C396.731 520.983 394.78 522.223 393.03 523.574C391.87 518.823 394.62 513.231 391.89 509.17C391.219 508.16 390.269 507.379 389.329 506.609L377.786 497.127C376.816 496.326 375.285 495.556 374.455 496.506C370.704 493.696 369.544 488.654 368.903 484.013C368.573 481.592 368.183 478.922 366.353 477.301C365.082 476.181 363.352 475.791 361.781 475.171C353.769 471.97 350.168 462.737 348.238 454.315C347.277 450.124 346.517 445.902 345.947 441.641C345.837 440.781 345.757 439.821 346.287 439.141C346.757 438.54 347.558 438.33 348.228 437.98C354.97 434.469 346.457 406.212 348.608 405.511C350.278 404.961 351.949 404.421 353.619 403.871L356.83 421.496C357.2 423.506 357.67 425.697 359.271 426.967C359.911 427.477 360.701 427.807 361.231 428.428C361.761 429.048 361.891 430.148 361.201 430.588C358.05 430.198 354.87 430.148 351.709 430.438C352.829 435.32 353.949 440.201 355.08 445.082C355.36 446.283 355.74 447.633 356.84 448.203C357.5 448.543 358.28 448.503 359.031 448.583C363.082 448.983 365.963 452.574 368.353 455.875C371.084 459.636 373.805 463.387 376.535 467.148C377.566 468.569 378.776 470.109 380.507 470.409C381.687 470.619 382.897 470.199 384.098 470.229C386.548 470.299 388.569 472.26 389.749 474.41C390.939 476.561 391.55 478.982 392.75 481.132C395.881 486.744 402.313 489.454 407.434 493.336C410.715 495.826 413.526 498.867 416.326 501.898C419.717 505.569 423.248 509.53 424.139 514.441C424.979 519.113 423.848 525.154 427.94 527.555C430.78 529.225 435.132 528.175 436.982 530.896C437.752 532.026 437.792 533.477 437.802 534.837L437.772 534.827ZM445.825 162.034C443.394 164.205 440.553 166.696 440.693 169.947C440.843 173.227 443.984 175.488 446.955 176.878C449.926 178.269 453.307 179.499 454.927 182.35C457.038 186.071 455.167 190.802 452.646 194.263C448.935 199.335 443.814 203.356 438.012 205.756C437.162 208.327 438.633 211.438 441.153 212.418C442.123 211.868 443.084 211.318 444.054 210.778C442.524 213.048 441.003 215.319 439.473 217.59C438.072 219.68 436.572 221.851 434.311 222.951C430.89 224.612 426.699 223.281 423.618 221.051C420.548 218.81 418.157 215.739 415.206 213.348C408.864 208.217 400.662 206.657 393.29 203.576C386.918 200.915 380.267 193.753 384.588 186.131C385.248 184.961 386.208 184 386.978 182.9C389.019 179.939 389.619 175.958 392.38 173.658C395.971 170.667 402.423 171.197 404.243 166.896C405.173 164.705 404.373 162.104 405.183 159.864C406.944 155.032 414.386 155.222 417.397 151.051C418.217 149.911 418.657 148.491 419.707 147.56C420.488 146.87 421.518 146.52 422.528 146.28C431.811 143.999 443.004 147.72 450.276 141.519C455.357 137.188 456.277 129.635 460.509 124.484C462.169 125.274 463.83 126.064 465.5 126.845C463.089 140.318 456.057 152.922 445.845 162.044L445.825 162.034ZM506.701 26.5171C508.442 27.7074 510.182 28.8877 511.923 30.078C512.653 29.7079 512.893 28.8077 513.043 28.0075C513.553 25.3667 513.963 22.596 513.243 20.0053C512.603 17.7046 510.372 13.9036 508.042 12.9233C504.201 11.3129 505.301 14.2137 505.271 17.7847C505.271 18.2148 505.271 18.6649 505.461 19.055C505.971 20.0653 507.361 20.0653 508.492 20.1753C509.822 20.3054 511.162 20.8355 512.043 21.8358C512.933 22.8361 513.283 24.3565 512.723 25.5668C512.093 26.177 511.122 25.4268 510.472 24.8466C509.002 23.5262 506.921 22.9161 504.971 23.2262C504.291 24.4165 505.571 25.7468 506.701 26.5171ZM497.299 11.1528C497.419 8.83219 497.549 6.50155 497.669 4.18091C497.709 3.45071 497.589 2.55046 497.149 2.07033C495.458 3.37069 494.518 5.52129 494.288 7.67188C494.028 10.0325 494.488 12.4032 494.958 14.7338C496.558 14.9039 497.219 12.7633 497.299 11.1528ZM476.183 5.9514C477.383 6.42153 478.764 6.17147 479.994 6.58158C482.225 7.32178 483.485 10.0425 485.806 10.4026C485.966 10.4226 486.126 10.4426 486.276 10.4226C487.086 10.3126 487.526 9.31233 487.306 8.53211C487.086 7.7519 486.396 7.18174 485.685 6.78163C482.415 4.95113 478.293 5.67133 474.682 4.78108C475.063 5.30123 475.583 5.72135 476.183 5.96142V5.9514ZM489.347 49.9335C489.196 50.3536 489.116 50.7938 489.147 51.2539C492.347 50.7437 494.368 46.7826 493.128 43.8518C492.958 44.7721 492.357 45.6323 491.667 46.4926C491.917 45.4423 491.887 44.332 491.467 43.3417C491.007 45.8424 487.336 47.8629 487.516 50.6637C488.186 50.5537 488.796 50.2936 489.336 49.9235L489.347 49.9335Z" fill="url(#paint0_linear_1690_17851)"/>
<path fill-rule="evenodd" clip-rule="evenodd" d="M501.208 154.603L550.252 175.438L558.624 187.962L517.243 223.451L499.438 161.855L501.218 154.613L501.208 154.603ZM496.057 162.345C495.977 162.065 495.967 161.755 496.037 161.474L498.197 152.692L482.923 134.087L433.1 108.85L411.924 135.657L397.18 154.322C397.09 154.443 396.94 154.513 396.79 154.503L361.64 153.662V168.616C361.64 176.268 364.301 188.272 372.523 192.753C376.324 194.824 381.775 197.034 387.147 199.465C391.308 201.345 395.409 203.376 398.67 205.587C400.351 206.727 401.801 207.907 402.911 209.148C408.983 215.909 415.435 233.544 418.386 242.017C422.857 254.84 425.978 265.943 426.008 266.143L427.938 277.566H429.298L468.149 271.265L494.666 240.976L514.052 224.612L496.057 162.355V162.345ZM404.752 218C411.504 230.513 418.646 252.78 422.477 266.013C422.507 266.103 422.527 266.183 422.547 266.253L417.385 277.096L389.748 266.343L378.504 264.463L379.435 258.141C379.475 257.881 379.295 257.641 379.045 257.601L349.607 252.379L349.637 252.259C349.316 252.229 348.996 252.169 348.686 252.079L348.646 252.209L289.64 241.747C290.59 237.965 287.369 237.605 285.669 234.835C283.608 231.474 284.859 228.863 281.938 227.623C278.067 225.972 270.845 229.903 267.094 232.114L269.445 176.519L267.454 171.097L290.951 151.952L358.259 153.562V168.656C358.259 169.497 358.319 174.448 359.879 180.1C361.59 186.241 364.861 192.423 370.902 195.704C372.853 196.764 375.334 197.894 378.054 199.095C383.726 201.605 396.159 206.667 400.401 211.388L403.351 215.699C404.162 216.38 404.562 217.15 404.762 217.99L404.752 218ZM349.337 253.31L378.404 258.461L377.544 264.303L347.666 259.301L349.327 253.3L349.337 253.31ZM337.113 260.972L387.267 269.364L383.456 273.345L336.593 265.373L337.113 260.972ZM336.473 266.333L383.546 274.336C383.706 274.366 383.866 274.305 383.976 274.195L388.417 269.564L416.375 280.347L413.474 302.623L389.858 298.962L383.526 287.649C383.406 287.439 383.156 287.349 382.926 287.439L335.173 306.424L331.722 303.383L332.182 302.413L336.473 266.343V266.333ZM333.132 265.763L325.14 264.403L324.02 273.115L313.097 287.729L328.941 300.993L333.142 265.763H333.132ZM316.588 281.447L297.492 267.454L293.861 271.625L312.356 287.109L316.588 281.447ZM291.631 274.175L284.499 282.368L289.64 290.53L300.753 302.633L310.326 289.82L291.631 274.175ZM286.859 292.45L298.693 305.384L293.451 312.396L277.587 290.29L282.178 285.018L286.859 292.44V292.45ZM276.937 291.04L292.841 313.206L288.15 319.488C285.579 315.197 284.369 313.626 280.708 309.395C277.467 305.654 273.516 301.343 270.645 298.272L276.937 291.05V291.04ZM268.404 300.833C272.115 304.824 279.777 313.126 282.628 317.127L285.949 322.429L280.338 329.941L264.503 305.324L268.404 300.843V300.833ZM263.493 305.534L279.727 330.761L266.914 347.906C266.824 348.036 266.794 348.196 266.844 348.346L274.616 372.092L267.064 382.065L234.285 381.775C233.645 381.775 233.645 382.735 234.285 382.745L266.924 383.035L275.406 420.896L262.433 423.587C262.193 423.637 262.033 423.857 262.053 424.107L265.934 467.039L275.756 468.539L272.235 566.756L254.09 583.461L254.05 584.121L289.84 605.467C289.92 605.507 290 605.537 290.09 605.537H362.77L363.25 605.017L362.38 592.853C362.47 592.983 362.62 593.063 362.79 593.063L392.188 591.733L416.555 608.017C413.334 612.178 411.354 621.871 410.473 626.722C410.213 628.183 410.013 629.443 409.873 630.373L403.911 653.13L408.013 658.971L409.923 668.784L414.014 671.915L401.871 726.99H403.901L415.755 673.245L419.116 675.826L424.147 673.865L438.131 688.389H444.383L450.244 695.641L493.806 693.651L523.775 664.273L539.119 624.232L610.598 727H614.729L515.652 584.431L509.271 577.259L536.608 550.091L555.743 568.276C555.853 568.386 556.013 568.426 556.163 568.396L632.044 554.152L660.372 526.755L781.826 677.286C782.216 677.787 782.976 677.196 782.586 676.696L661.052 526.105L680.078 507.68C680.168 507.59 680.227 507.46 680.227 507.33V499.598L929.256 616.47C929.886 616.59 930.066 615.639 929.436 615.519L680.227 498.617V444.572L700.663 430.699C700.813 430.599 700.893 430.418 700.873 430.238L699.253 416.014L941.679 377.974C942.31 377.894 942.18 376.934 941.549 377.014L699.143 415.044L698.193 406.752C698.172 406.582 698.062 406.432 697.892 406.362L666.824 393.518L664.193 383.576C664.143 383.366 663.943 383.215 663.723 383.215H653.61L654.03 364.84H665.083C665.333 364.84 665.544 364.65 665.564 364.4C665.634 362.81 666.774 349.876 666.414 340.494C666.084 340.474 665.754 340.424 665.434 340.334C665.744 347.886 665.073 358.079 664.733 362.54L664.633 363.88H654.04L654.11 358.449L642.757 336.022L635.075 331.051C634.995 331.001 634.915 330.971 634.815 330.971L615.25 330.881V297.742C618.631 297.522 638.206 296.302 643.397 297.792C647.429 298.962 652.62 307.435 654.841 311.316C655.211 311.276 655.591 311.276 655.961 311.326C653.43 306.834 648.119 298.142 643.667 296.862C638.206 295.281 618.26 296.572 615.25 296.772V267.053L614.97 266.113L605.667 252.189L619.161 258.331C619.391 258.431 619.611 258.481 619.861 258.481H673.336C673.546 258.481 673.776 258.441 673.966 258.361L1010.48 72.64C1012.54 71.8098 1011.16 68.4188 1009.21 69.5091L673.006 255.1H620.231L602.106 246.838L552.832 173.138C552.652 172.868 552.392 172.647 552.092 172.517L502.079 151.272L507.2 129.956C507.2 129.956 511.591 127.165 512.912 125.515C521.804 114.481 536.348 75.3007 537.778 71.2796C537.838 71.0996 537.878 70.9295 537.878 70.7394L538.649 60.6967C539.679 54.9851 548.001 42.1816 551.822 36.48C558.784 26.0672 570.597 10.0428 575.519 0H571.738C569.747 3.82105 566.826 8.43232 563.505 13.3937C558.414 21.0058 552.372 29.4581 547.141 37.4303C543.04 43.682 537.678 52.2544 535.658 58.7061L534.908 63.4274L534.437 70.6094C531.317 79.1218 518.363 113.271 510.281 123.414L506.01 126.705C505.269 127.205 504.289 127.635 504.069 128.525L499.248 148.591L485.364 131.686C485.214 131.506 485.034 131.356 484.824 131.256L434.95 105.989L441.042 93.7558V47.363L438.531 24.3467C438.521 24.2467 438.481 24.1667 438.421 24.0866L425.878 9.18252C425.788 9.07249 425.648 9.01248 425.508 9.01248H361.7V0.030007H358.319V46.2427L264.893 46.5528L264.953 45.1124L256.541 7.91218C256.491 7.68212 256.281 7.53207 256.051 7.53207L217.66 8.93245L216.39 0.030007H212.979L214.389 9.88272L202.896 22.5362C202.636 22.8163 202.486 23.1764 202.456 23.5665L200.095 60.3266L145.641 62.8173L145.54 60.2866L126.165 26.7674C126.065 26.5973 125.865 26.4973 125.665 26.5373L30.6688 42.5317C30.0386 42.6417 30.1987 43.592 30.8289 43.482L125.495 27.5476L144.57 60.4466L144.67 62.8673L137.908 63.1874L112.471 70.3294L89.255 87.8342C89.175 87.8942 89.1149 87.9842 89.0849 88.0843L84.3536 104.619L0.0704346 80.9923V84.5033L84.6737 108.22L128.936 141.319L132.927 142.899V167.706C132.927 167.946 133.107 168.146 133.337 168.186L154.633 171.227L167.937 200.485L182.531 214.239L182.421 216.65L170.247 233.394L99.2277 251.819L71.6302 240.426L3.62146 233.214L0.0704346 232.474V235.925L3.18128 236.565L71.03 243.757C80.1725 247.558 89.315 251.359 98.4575 255.16C98.7976 255.3 99.1777 255.33 99.5278 255.24L170.907 236.725C174.638 239.436 181.76 244.467 186.402 247.038C187.932 247.878 189.663 248.608 191.523 249.259C194.494 250.299 197.565 251.089 200.606 251.869C207.377 253.6 215.12 255.29 222.142 257.241C227.743 258.801 234.925 261.062 239.256 264.083C246.018 268.784 259.382 288.659 264.113 296.121L267.814 300.143L263.603 304.974C263.463 305.134 263.443 305.374 263.563 305.554L263.493 305.534ZM517.523 224.462L518.393 227.483L544.8 259.001L573.118 265.273L593.594 256.421L598.885 248.198L559.154 188.762L517.533 224.462H517.523ZM543.51 262.182L572.918 268.694C573.258 268.774 573.628 268.734 573.958 268.594L594.694 259.631L611.829 268.094V330.851L556.353 330.581C556.353 330.581 556.333 330.551 556.323 330.541L533.657 312.846L511.141 290.39L509.831 270.614L532.797 249.919L542.6 261.612C542.84 261.902 543.16 262.092 543.53 262.182H543.51ZM528.236 331.411L611.829 331.811V412.844L581.88 403.321C581.68 403.261 581.46 403.321 581.34 403.501L567.507 423.196L549.292 361.199C549.252 361.049 549.141 360.929 548.991 360.879L533.737 355.268L528.236 331.411ZM581.921 404.351L611.819 413.864V470.509L581.53 500.608L537.028 454.265L567.717 424.577L581.921 404.351ZM615.2 471.21V463.288H650.769L650.179 489.135L608.518 528.746L583.871 503.048L614.699 472.41C615.02 472.09 615.2 471.66 615.2 471.21ZM615.2 383.205V364.83H653L652.58 383.205H615.2ZM615.2 384.176H652.56L651.92 412.363L615.2 413.564V384.176ZM615.2 414.534L651.9 413.354L650.789 462.327H615.2V414.534ZM615.2 331.841L634.615 331.931L641.897 336.573L653.13 358.769L653.01 363.87H615.19V331.831L615.2 331.841ZM653.53 384.186H663.293L665.894 393.998C665.934 394.148 666.034 394.269 666.174 394.319L675.496 398.17L652.91 411.773L653.53 384.176V384.186ZM652.88 412.924L676.596 398.63L697.202 407.142L699.823 430.048L679.417 443.902C679.287 443.992 679.207 444.142 679.207 444.302V462.327H651.77L652.89 412.924H652.88ZM650.999 489.705C651.089 489.615 651.15 489.495 651.15 489.365L651.74 463.298H679.197V507.12L656.461 529.146L635.025 504.889L650.999 489.705ZM609.198 529.456L634.325 505.559L655.761 529.826L631.804 553.032L609.188 529.456H609.198ZM515.582 229.403L532.167 249.199L509.141 269.954H481.103L472.36 271.605L497.127 243.317L515.082 228.183L515.582 229.403ZM533.027 313.616L554.783 330.601L527.736 330.471L472.861 305.004L469.83 274.336L471.33 272.785L481.143 270.925H508.87L510.171 290.67C510.171 290.79 510.231 290.9 510.311 290.98L533.027 313.626V313.616ZM533.157 356.108L548.431 361.72L566.786 424.167L536.368 453.585L498.317 414.664L485.994 391.868L484.294 373.193L471.65 338.443L472.871 306.064L527.215 331.281L532.857 355.758C532.897 355.918 533.007 356.048 533.157 356.098V356.108ZM536.008 454.605L572.068 492.135L547.801 495.676L526.185 488.725L528.056 446.473L535.998 454.605H536.008ZM526.145 489.725L545.731 495.977L525.745 498.817L526.145 489.725ZM526.585 499.758L572.888 492.996L580.86 501.298L535.898 545.98L530.846 529.066L525.825 499.778L526.605 499.747L526.585 499.758ZM583.191 503.739L607.828 529.426L598.815 537.998L589.943 540.169C588.482 540.419 574.979 542.619 570.857 540.929C567.396 539.508 561.175 531.296 558.754 528.025L583.191 503.749V503.739ZM502.579 420.416L526.775 445.163L514.512 450.174L502.369 465.348L482.253 470.299L451.385 494.136C451.775 488.244 452.545 484.593 452.545 478.962C452.545 467.159 449.684 454.565 445.433 442.282C444.633 439.981 443.792 437.69 442.902 435.43L466.049 426.147L493.646 426.277C493.736 426.277 493.836 426.247 493.916 426.197L502.569 420.406L502.579 420.416ZM503.019 466.078L515.182 450.874L527.105 446.073L524.765 498.847L496.167 499.768V494.336C496.167 494.026 495.887 493.796 495.587 493.866L473.931 498.517L465.168 495.116L451.295 495.516V495.436L482.763 471.15L502.759 466.268C502.859 466.248 502.959 466.188 503.019 466.098V466.078ZM495.697 500.748L524.825 499.818L529.796 528.796L490.935 535.927C490.195 534.337 488.615 533.287 486.804 533.287C485.634 533.287 484.564 533.737 483.754 534.467C483.724 534.447 483.693 534.427 483.663 534.417L459.687 522.584L450.404 519.253L451.235 496.497L465.088 496.097L473.981 499.507L495.197 494.956V500.298L495.697 500.778V500.748ZM491.256 536.848L530.016 529.736L535.108 546.76L506.96 574.738L498.818 565.616L491.796 555.653L490.775 540.109C490.835 539.839 491.686 538.738 491.266 536.848H491.256ZM485.084 392.248L497.567 415.304L501.889 419.716L493.506 425.317L465.778 425.217L446.173 433.079C448.364 431.589 451.254 429.578 454.275 427.348C458.817 423.977 467.139 417.535 469.6 413.094C470.85 410.813 471.16 407.562 471.16 403.921C471.16 399.48 470.68 394.459 470.68 390.067C470.68 386.316 470.88 382.375 472.93 380.365C475.371 377.974 480.423 375.513 483.413 374.083L485.094 392.248H485.084ZM458.457 525.715L482.253 537.508C482.043 540.449 484.594 542.809 487.525 542.349L488.445 556.353C488.465 556.663 488.575 556.963 488.755 557.213L496.227 567.796L512.862 586.431L517.853 593.723L484.074 583.451L463.238 564.095C463.098 563.965 462.898 563.925 462.728 564.005L451.795 568.506L448.014 567.076C447.854 562.605 445.353 561.525 442.502 557.794L441.452 555.763C441.742 554.953 442.092 553.842 442.482 552.472L449.904 522.664L458.457 525.735V525.715ZM451.985 569.457L462.808 565.005L483.683 584.341L510.391 592.463L483.273 635.105L473.251 658.711L449.444 658.091L441.092 655.51L437.641 649.759H429.749L425.097 662.382L415.865 669.034L413.004 666.844L411.204 657.601L407.603 652.47C407.603 652.47 412.894 632.744 412.924 632.484C413.514 628.183 416.065 612.599 419.806 609.418C421.296 608.147 429.089 608.438 429.369 608.397L432.719 607.197L444.263 586.211L447.423 573.438C447.734 571.567 447.954 569.757 447.984 568.116L451.595 569.487C451.715 569.527 451.835 569.527 451.955 569.487L451.985 569.457ZM438.801 658.421L448.874 661.542L475.511 662.232L486.344 636.715L513.782 593.573L513.522 593.403L518.723 594.984L538.369 623.232L522.864 663.693L493.316 692.651L450.624 694.601L444.783 687.369H438.481L424.797 673.165L432.159 653.19H435.67L438.801 658.401V658.421ZM470.66 338.503L471.89 305.904L451.885 309.545L442.962 308.185L442.212 317.087C442.212 317.187 442.172 317.277 442.102 317.347L435.07 326.06C435 326.15 434.9 326.21 434.78 326.23L424.437 328.14L410.203 324.239L399.46 351.527L394.769 358.389L403.291 363.35C403.591 363.52 403.832 363.79 403.972 364.1L407.373 371.432C407.743 371.932 409.093 373.783 411.104 376.734L459.147 422.346C462.518 419.616 467.069 415.644 468.739 412.624C469.84 410.643 470.19 407.502 470.18 403.911C470.18 399.53 469.7 394.509 469.7 390.057C469.7 386.526 469.99 383.346 471.15 381.065C472.66 378.094 480.813 374.203 483.213 373.103L470.66 338.503ZM438.271 554.593C436.801 558.624 443.652 563.225 444.403 565.586C445.553 569.217 442.432 580.77 441.272 584.611L430.069 605.036C427.188 604.926 420.136 604.766 417.665 606.807C417.485 606.957 417.305 607.127 417.135 607.297L392.758 591.003L394.519 543.039C394.529 542.779 394.329 542.549 394.059 542.539L359.129 540.879C358.879 540.869 358.669 541.049 358.639 541.299L358.349 537.298L340.094 409.193C345.986 408.032 351.717 405.612 356.859 402.521L371.142 431.739C371.232 431.929 371.453 432.039 371.663 431.999L384.706 429.638L407.983 431.859L422.917 459.877L447.844 496.087C447.273 505.879 447.013 518.573 446.973 520.203L440.142 548.111L438.251 554.583L438.271 554.593ZM417.505 670.274L423.867 665.693L421.916 670.985L419.606 671.885L417.505 670.274ZM413.604 380.435L458.397 422.956L443.863 433.469C443.292 433.849 442.832 434.149 442.472 434.39C434.78 414.984 423.717 395.669 413.604 380.445V380.435ZM427.408 410.113C431.489 417.775 435.55 426.187 439.031 434.87L411.524 431.289L387.087 385.406L386.067 384.496C385.136 383.896 382.776 382.375 379.615 380.265C384.726 373.433 391.088 363.88 392.869 361.199L401.131 366.011L404.592 373.353C405.242 374.233 416.425 389.487 427.418 410.123L427.408 410.113ZM412.074 432.339L439.431 435.9C445.803 452.044 450.854 470.88 448.604 487.294C448.474 488.234 448.354 489.355 448.244 490.605L425.758 458.036L412.064 432.339H412.074ZM359.089 541.849L393.539 543.49L391.798 590.793L362.69 592.113C362.51 592.113 362.37 592.233 362.29 592.373L358.659 541.519C358.719 541.699 358.889 541.839 359.089 541.849ZM454.455 276.916L442.702 300.083L442.082 307.074L416.805 303.153L419.696 280.957L429.699 280.937L454.465 276.926L454.455 276.916ZM416.675 304.104L415.985 309.415L410.563 323.329L424.377 327.17L434.44 325.31L441.262 316.847L442.002 308.025L416.675 304.094V304.104ZM384.306 387.387L407.453 430.839L384.616 428.678L371.873 430.989L357.699 402.011C361.6 399.58 365.761 396.399 369.962 392.218C372.323 389.857 375.344 385.976 377.594 382.985C380.955 385.226 383.416 386.816 384.316 387.397L384.306 387.387ZM342.915 435.76L354.268 515.442L354.188 514.962L333.292 518.473L329.221 531.986L328.481 535.577C328.071 538.438 327.581 542.459 327.431 543.75L273.936 545.07L276.687 468.149C276.687 467.899 276.516 467.689 276.276 467.659L268.614 466.528L328.551 451.194C328.761 451.144 328.911 450.944 328.911 450.724V435.76H342.905H342.915ZM273.936 546.06L328.311 544.72L330.011 532.717L334.072 519.343L354.338 515.942L357.399 537.418L362.19 604.576H290.17L255.171 583.741L272.995 567.336C273.096 567.246 273.146 567.126 273.156 566.996L273.926 545.57V546.06H273.936ZM390.018 299.973V311.066C390.018 311.196 389.968 311.316 389.878 311.406L387.057 314.226V319.208C387.057 319.328 387.017 319.438 386.937 319.518L371.062 337.983L392.028 356.408L396.389 350.106L412.664 308.775L413.344 303.584L390.028 299.963L390.018 299.973ZM389.047 299.532L382.876 288.489L335.973 307.134L370.342 337.343L386.097 319.028V314.026C386.097 313.496 388.917 311.196 389.057 310.866V299.532H389.047ZM329.571 306.014L318.268 319.988C319.898 321.368 321.389 322.659 322.809 323.979C329.781 330.471 334.773 338.163 341.594 350.066C343.225 352.907 348.116 357.138 351.147 359.649L368.122 339.904L329.561 306.014H329.571ZM338.674 351.747C343.235 359.649 367.411 376.154 374.773 381.085L367.572 389.807C361.37 395.989 354.638 400.43 348.156 403.171C344.875 404.561 341.424 405.612 337.893 406.132C337.243 406.232 336.703 406.292 336.283 406.322L300.463 341.984L316.147 322.599C318.478 324.569 320.429 326.29 322.289 328.16C324.32 330.201 326.23 332.422 328.381 335.372C329.981 337.563 331.712 340.164 333.702 343.375C335.193 345.785 336.833 348.546 338.674 351.737V351.747ZM297.442 343.515L320.339 384.636L316.728 386.526L292.901 349.496L297.432 343.515H297.442ZM292.291 350.316L315.877 386.976L285.659 402.801L275.666 372.272L292.291 350.306V350.316ZM285.959 403.731L316.397 387.787L320.258 393.788L288.61 411.823L285.959 403.721V403.731ZM274.956 373.213L294.932 434.25L295.652 434.5L334.292 409.413C334.392 409.493 334.503 409.553 334.613 409.603L334.883 434.78H328.421L327.941 435.26V450.324L266.594 466.018L263.003 424.427L276.036 421.726L276.406 421.146L267.784 382.645L274.936 373.193L274.956 373.213ZM327 303.804L315.687 317.777C313.967 316.247 311.726 314.056 309.296 311.596C306.755 309.015 304.004 306.134 301.393 303.343L311.036 290.44L327 303.804ZM299.343 306.094L294.021 313.216L305.945 329.831L313.567 320.408C309.466 316.777 303.484 310.495 299.353 306.094H299.343ZM293.411 314.026L288.66 320.378L294.291 330.411C296.082 333.712 297.692 336.763 298.733 338.733L305.314 330.601L293.421 314.026H293.411ZM286.459 323.319L280.878 330.791L292.341 348.616L296.912 342.574L292.431 334.102C290.58 330.661 288.41 326.7 286.449 323.329L286.459 323.319ZM286.149 241.466C286.759 239.896 286.259 240.646 284.099 238.366C282.228 236.385 281.368 234.054 280.718 230.894L280.388 230.663C277.557 229.943 270.125 234.164 267.374 235.855L269.274 257.531L279.247 259.671C279.517 259.731 279.767 259.852 279.977 260.032L293.071 270.995L297.012 266.473C297.172 266.283 297.462 266.253 297.662 266.403L317.098 280.707L323.129 272.635L324.15 264.243L295.032 259.291L288.28 252.81C287.92 252.63 286.499 252.84 285.819 251.919C284.069 249.539 284.859 244.827 286.139 241.486L286.149 241.466ZM264.173 237.895L265.934 257.981L248.159 268.184L242.277 262.172L248.859 249.289C254.87 244.417 259.932 240.686 264.163 237.885L264.173 237.895ZM242.267 254.8L239.486 260.242C238.806 259.841 238.086 259.451 237.336 259.071C239.036 257.581 240.687 256.15 242.277 254.8H242.267ZM266.014 176.719L263.583 231.034L263.833 234.074C261.422 235.625 258.742 237.475 255.761 239.666C252.93 241.757 249.829 244.157 246.458 246.898L233.925 257.551C232.634 257.031 231.274 256.531 229.864 256.05C220.001 252.71 208.218 250.469 198.115 247.698C196.554 247.268 194.994 246.838 193.454 246.338C189.673 245.117 187.512 243.947 183.071 241.066L173.518 234.475C177.459 229.053 181.41 223.622 185.361 218.2C185.551 217.93 185.672 217.61 185.682 217.28L187.812 170.317L187.992 169.127L250.549 142.419L252.55 142.769L266.014 176.719ZM290.44 151.082C290.53 151.012 290.64 150.972 290.76 150.972L358.229 152.592V136.287H358.169C358.219 135.947 358.229 135.627 358.209 135.317H358.229V96.9767H322.429V135.217C322.379 135.587 322.379 135.927 322.379 136.298L267.554 136.318L255.291 140.549C255.291 140.549 255.331 140.619 255.351 140.659L267.044 170.157L290.44 151.092V151.082ZM150.352 149.481L184.401 171.057L182.501 212.939L168.697 199.975L155.323 170.567C155.253 170.417 155.113 170.317 154.953 170.287L133.807 167.266V143.239L150.352 149.481ZM410.153 136.267L396.529 153.512L361.6 152.672V136.287H400.601L403.611 143.219C403.862 143.8 404.752 143.419 404.492 142.829L401.641 136.267H410.133H410.153ZM267.314 135.377L254.55 139.778L253.43 139.498L240.827 96.9767H321.459V135.327L267.314 135.377ZM239.926 97.3268L252.37 139.298L242.537 137.548L225.833 121.874L220.971 107.64L239.926 97.3268ZM223.212 124.054L240.587 140.359C240.827 140.589 241.127 140.729 241.447 140.789L248.819 142.099L188.172 167.986L194.664 125.294L204.757 116.452L217.96 109.27L222.772 123.354C222.862 123.614 223.012 123.854 223.212 124.044V124.054ZM191.413 124.184L184.851 167.326L151.702 146.37L149.211 145.43L168.317 107.93L192.904 122.344C192.213 122.944 191.523 123.374 191.403 124.184H191.413ZM202.666 113.791L193.684 121.663L168.767 107.059L181.16 82.7328H203.876L216.61 106.149L202.666 113.781V113.791ZM167.486 107.44L158.514 125.044C158.474 124.964 158.414 124.894 158.334 124.844L124.025 105.819L135.948 88.9545L167.486 107.43V107.44ZM123.464 106.619L157.864 125.695C157.954 125.745 158.064 125.755 158.164 125.745L148.311 145.09L130.676 138.438L111.241 123.904L123.464 106.629V106.619ZM135.158 88.4143L110.471 123.324L86.3542 105.289L85.1838 104.849L89.8652 88.4743L112.721 71.1996L137.908 64.1176L144.6 63.7976L145.02 74.4505L135.638 87.7241C135.248 87.6541 134.938 88.0542 135.138 88.4243L135.158 88.4143ZM410.913 135.297H401.401V97.0467L413.764 99.0473L432.179 108.37L410.913 135.287V135.297ZM400.441 96.9767V135.297H361.6V96.9767H400.441ZM238.946 94.0059L219.581 104.539L207.457 82.2626L233.915 76.241L238.946 94.0059ZM180.37 82.1526L167.927 106.579L136.508 88.1743L145.921 74.8606C145.981 74.7706 146.011 74.6705 146.011 74.5605L145.58 63.7375L179.3 62.1171L180.38 82.1426L180.37 82.1526ZM358.219 93.5858H262.833L264.753 47.4631L358.219 47.153V93.5858ZM263.793 47.4631L261.872 93.5858L239.846 93.6258L234.865 76.0509L262.393 71.2296C263.003 71.0996 262.853 70.2393 262.283 70.2693L233.645 71.7697L228.163 52.4144L262.353 47.4731H263.793V47.4631ZM233.645 75.3007L217.66 78.9417C217.15 79.5619 216.42 80.052 215.46 80.3021C214.619 80.5222 209.528 80.7222 208.578 80.7622C208.398 80.7622 208.228 80.7622 208.058 80.7622L206.877 81.1823L206.387 80.2821C205.097 79.5919 204.227 78.2515 204.187 76.6011C204.187 76.4911 204.187 76.381 204.207 76.281L202.556 73.2502L203.336 61.1168L212.199 60.6967L227.253 52.7245L232.704 71.9698L218.511 77.0312C218.451 77.4313 218.33 77.8214 218.15 78.1815L232.964 72.8901L233.645 75.3007ZM199.935 61.2468L199.145 73.5102C199.125 73.8303 199.195 74.1404 199.345 74.4205L203.336 81.7625H181.31L180.25 62.0671L199.925 61.2468H199.935ZM400.441 93.5858H361.6V9.92273H400.441V93.5858ZM262.253 46.5128L227.903 51.4742L216.76 12.1533L217.33 11.5232C217.83 10.983 217.8 10.4629 217.71 9.8427L255.601 8.46234L263.903 45.0824L263.843 46.5028H262.253V46.5128ZM254.4 71.6497L234.605 75.1207L233.925 72.72L254.4 71.6497ZM211.849 59.7865L203.406 60.1366L205.707 24.3167L216 12.9836L226.993 51.7642L211.849 59.7865ZM439.991 47.393V93.5858L434.01 105.499L415.075 95.9064L401.421 93.6158V9.92273H425.207L437.511 24.5467L440.001 47.393H439.991ZM289.32 242.647V242.667C288.44 244.967 288.2 246.638 288.2 247.788C288.2 248.508 288.29 249.019 288.39 249.369L325.23 255.54L326.01 249.159L289.32 242.657V242.647ZM348.356 253.12L326.96 249.329L326.19 255.7L346.696 259.131L348.356 253.13V253.12ZM333.752 260.392L325.77 259.061L325.24 263.432L333.232 264.793L333.752 260.402V260.392ZM423.547 271.945L424.497 277.536H420.886L423.547 271.945ZM455.636 276.686L468.869 274.536L471.87 304.874L451.795 308.525L443.042 307.165L443.612 300.383L455.646 276.676L455.636 276.686ZM289.96 253.06L295.362 258.341L324.29 263.262L324.82 258.901L289.96 253.07V253.06ZM271.285 261.402L283.939 281.487L290.87 273.535L278.147 262.882L271.285 261.412V261.402ZM368.852 340.514L390.108 359.199L376.794 378.344C369.092 373.153 359.309 366.281 351.907 360.239L368.862 340.524L368.852 340.514ZM339.154 409.333L342.775 434.76H335.853L335.583 409.733C336.093 409.713 337.333 409.643 339.154 409.333ZM281.628 284.148L267.154 261.182L259.752 265.433L276.997 289.47L281.628 284.158V284.148ZM276.346 290.21L258.912 265.913L250.359 270.825C256.141 278.027 263.943 289.62 266.884 294.261C267.234 294.631 268.384 295.841 269.965 297.532L276.346 290.21ZM597.175 257.071L600.926 251.239L608.588 262.702L597.175 257.071ZM537.228 549.371L558.064 528.666C560.294 531.726 566.726 540.209 570.487 541.769C575.149 543.7 590.273 541.059 590.503 540.999L599.385 538.738L608.498 530.076L630.834 553.362L556.173 567.366L537.238 549.371H537.228ZM280.278 331.601L291.741 349.416L275.306 371.122L267.824 348.256L280.278 331.591V331.601ZM485.624 537.808C485.624 536.248 487.985 536.248 487.995 537.808C487.995 539.368 485.624 539.368 485.624 537.808ZM320.819 385.456L331.362 404.401L328.921 405.442L317.258 387.317L320.809 385.456H320.819ZM320.789 394.589L328.331 406.312C328.461 406.512 328.711 406.592 328.931 406.492L331.832 405.252L333.712 408.622L295.662 433.329L288.93 412.754L320.799 394.589H320.789Z" fill="url(#paint1_linear_1690_17851)"/>
<path d="M266.909 93.552H261.469V88.8H259.981V100H261.469V94.96H266.909V100H268.381V88.8H266.909V93.552ZM277.386 98.992C278.202 98.176 278.618 97.184 278.618 96C278.618 94.816 278.202 93.824 277.386 93.008C276.57 92.192 275.562 91.792 274.394 91.792C273.226 91.792 272.218 92.192 271.402 93.008C270.586 93.824 270.186 94.816 270.186 96C270.186 97.184 270.586 98.176 271.402 98.992C272.218 99.808 273.226 100.208 274.394 100.208C275.562 100.208 276.57 99.808 277.386 98.992ZM274.394 98.848C273.61 98.848 272.938 98.576 272.394 98.032C271.85 97.488 271.578 96.816 271.578 96C271.578 95.184 271.85 94.512 272.394 93.968C272.938 93.424 273.61 93.152 274.394 93.152C275.194 93.152 275.866 93.424 276.41 93.968C276.954 94.512 277.226 95.184 277.226 96C277.226 96.816 276.954 97.488 276.41 98.032C275.866 98.576 275.194 98.848 274.394 98.848ZM285.587 95.888C286.163 95.52 286.451 94.944 286.451 94.176C286.451 92.88 285.539 92 283.939 92H280.259V100H284.259C285.907 100 286.819 99.072 286.819 97.744C286.819 96.848 286.403 96.224 285.587 95.888ZM283.875 93.248C284.691 93.248 285.091 93.584 285.091 94.272C285.091 94.992 284.691 95.344 283.875 95.344H281.619V93.248H283.875ZM281.619 98.736V96.576H284.179C284.995 96.576 285.443 96.976 285.443 97.632C285.443 98.336 284.995 98.736 284.179 98.736H281.619ZM295.074 98.992C295.89 98.176 296.306 97.184 296.306 96C296.306 94.816 295.89 93.824 295.074 93.008C294.258 92.192 293.25 91.792 292.082 91.792C290.914 91.792 289.906 92.192 289.09 93.008C288.274 93.824 287.874 94.816 287.874 96C287.874 97.184 288.274 98.176 289.09 98.992C289.906 99.808 290.914 100.208 292.082 100.208C293.25 100.208 294.258 99.808 295.074 98.992ZM292.082 98.848C291.298 98.848 290.626 98.576 290.082 98.032C289.538 97.488 289.266 96.816 289.266 96C289.266 95.184 289.538 94.512 290.082 93.968C290.626 93.424 291.298 93.152 292.082 93.152C292.882 93.152 293.554 93.424 294.098 93.968C294.642 94.512 294.914 95.184 294.914 96C294.914 96.816 294.642 97.488 294.098 98.032C293.554 98.576 292.882 98.848 292.082 98.848ZM303.931 95.76V94.416H298.091V95.76H303.931ZM311.589 100.208C312.613 100.208 313.557 99.968 314.421 99.472C315.285 98.976 315.957 98.304 316.421 97.472L315.125 96.736C314.485 97.952 313.125 98.752 311.589 98.752C310.293 98.752 309.237 98.336 308.421 97.504C307.605 96.672 307.205 95.632 307.205 94.4C307.205 93.152 307.605 92.112 308.421 91.28C309.237 90.448 310.293 90.032 311.589 90.032C313.125 90.032 314.485 90.832 315.125 92.064L316.421 91.312C315.461 89.648 313.637 88.592 311.589 88.592C309.893 88.592 308.485 89.152 307.381 90.272C306.277 91.392 305.733 92.768 305.733 94.4C305.733 96.032 306.277 97.408 307.381 98.528C308.485 99.648 309.893 100.208 311.589 100.208ZM324.555 93.376C323.867 92.32 322.859 91.792 321.531 91.792C320.411 91.792 319.451 92.208 318.667 93.024C317.883 93.84 317.483 94.832 317.483 96C317.483 97.168 317.883 98.176 318.667 98.992C319.451 99.808 320.411 100.208 321.531 100.208C322.859 100.208 323.867 99.68 324.555 98.624V100H325.947V92H324.555V93.376ZM321.707 98.864C320.907 98.864 320.235 98.592 319.691 98.048C319.147 97.488 318.875 96.816 318.875 96C318.875 95.184 319.147 94.512 319.691 93.968C320.235 93.408 320.907 93.136 321.707 93.136C322.523 93.136 323.195 93.408 323.739 93.968C324.283 94.512 324.555 95.184 324.555 96C324.555 96.816 324.283 97.488 323.739 98.048C323.195 98.592 322.523 98.864 321.707 98.864ZM333.384 95.888C333.96 95.52 334.248 94.944 334.248 94.176C334.248 92.88 333.336 92 331.736 92H328.056V100H332.056C333.704 100 334.616 99.072 334.616 97.744C334.616 96.848 334.2 96.224 333.384 95.888ZM331.672 93.248C332.488 93.248 332.888 93.584 332.888 94.272C332.888 94.992 332.488 95.344 331.672 95.344H329.416V93.248H331.672ZM329.416 98.736V96.576H331.976C332.792 96.576 333.24 96.976 333.24 97.632C333.24 98.336 332.792 98.736 331.976 98.736H329.416ZM337.495 97.616V92H336.118V100H337.239L341.671 94.384V100H343.047V92H341.927L337.495 97.616ZM350.701 95.328H346.557V92H345.165V100H346.557V96.656H350.701V100H352.093V92H350.701V95.328ZM360.964 98.992C361.78 98.176 362.196 97.184 362.196 96C362.196 94.816 361.78 93.824 360.964 93.008C360.148 92.192 359.14 91.792 357.972 91.792C356.804 91.792 355.796 92.192 354.98 93.008C354.164 93.824 353.764 94.816 353.764 96C353.764 97.184 354.164 98.176 354.98 98.992C355.796 99.808 356.804 100.208 357.972 100.208C359.14 100.208 360.148 99.808 360.964 98.992ZM357.972 98.848C357.188 98.848 356.516 98.576 355.972 98.032C355.428 97.488 355.156 96.816 355.156 96C355.156 95.184 355.428 94.512 355.972 93.968C356.516 93.424 357.188 93.152 357.972 93.152C358.772 93.152 359.444 93.424 359.988 93.968C360.532 94.512 360.804 95.184 360.804 96C360.804 96.816 360.532 97.488 359.988 98.032C359.444 98.576 358.772 98.848 357.972 98.848ZM369.165 95.888C369.741 95.52 370.029 94.944 370.029 94.176C370.029 92.88 369.117 92 367.517 92H363.837V100H367.837C369.485 100 370.397 99.072 370.397 97.744C370.397 96.848 369.981 96.224 369.165 95.888ZM367.453 93.248C368.269 93.248 368.669 93.584 368.669 94.272C368.669 94.992 368.269 95.344 367.453 95.344H365.197V93.248H367.453ZM365.197 98.736V96.576H367.757C368.573 96.576 369.021 96.976 369.021 97.632C369.021 98.336 368.573 98.736 367.757 98.736H365.197ZM375.66 100.208C377.212 100.208 378.572 99.392 379.26 98.128L378.076 97.44C377.628 98.288 376.732 98.832 375.66 98.832C374.86 98.832 374.188 98.56 373.644 98.016C373.116 97.472 372.844 96.8 372.844 96C372.844 95.184 373.116 94.512 373.644 93.968C374.188 93.424 374.86 93.152 375.66 93.152C376.732 93.152 377.628 93.712 378.028 94.56L379.196 93.888C378.572 92.608 377.244 91.792 375.66 91.792C374.46 91.792 373.452 92.192 372.652 93.008C371.852 93.808 371.452 94.8 371.452 96C371.452 97.2 371.852 98.192 372.652 99.008C373.452 99.808 374.46 100.208 375.66 100.208ZM383.466 95.872L387.29 92H385.498L382.042 95.536V92H380.65V100H382.042V96.208L385.69 100H387.418L383.466 95.872ZM390.088 97.616V92H388.712V100H389.832L394.264 94.384V100H395.64V92H394.52L390.088 97.616ZM403.391 90.8V89.584H399.071V90.8H403.391ZM399.135 97.616V92H397.759V100H398.879L403.311 94.384V100H404.687V92H403.567L399.135 97.616Z" fill="white"/>
<path d="M563.603 175.742C564.158 176.603 564.871 177.267 565.756 177.725C566.641 178.182 567.57 178.383 568.52 178.323L568.437 176.835C567.068 176.955 565.659 176.245 564.827 174.954C564.126 173.864 563.903 172.751 564.161 171.615C564.418 170.478 565.076 169.579 566.112 168.911C567.161 168.236 568.252 168.009 569.393 168.244C570.535 168.479 571.456 169.142 572.158 170.231C572.99 171.523 573.054 173.099 572.365 174.304L573.699 174.987C574.578 173.278 574.478 171.173 573.369 169.452C572.45 168.026 571.217 167.145 569.677 166.824C568.138 166.502 566.687 166.79 565.315 167.674C563.943 168.558 563.081 169.76 562.737 171.295C562.393 172.83 562.685 174.317 563.603 175.742ZM571.717 186.091C572.845 186.335 573.904 186.148 574.899 185.507C575.895 184.865 576.503 183.979 576.747 182.851C576.992 181.723 576.782 180.659 576.149 179.677C575.517 178.695 574.635 178.064 573.507 177.82C572.379 177.576 571.328 177.777 570.333 178.418C569.338 179.059 568.72 179.933 568.476 181.061C568.232 182.189 568.442 183.253 569.074 184.235C569.707 185.217 570.589 185.847 571.717 186.091ZM570.218 183.498C569.793 182.839 569.658 182.127 569.821 181.375C569.983 180.623 570.401 180.03 571.087 179.588C571.773 179.147 572.485 179.011 573.237 179.174C573.989 179.337 574.581 179.754 575.006 180.413C575.439 181.086 575.575 181.798 575.412 182.55C575.249 183.302 574.832 183.895 574.146 184.337C573.46 184.778 572.747 184.914 571.995 184.751C571.244 184.588 570.651 184.171 570.218 183.498ZM578.768 191.305C579.389 191.59 580.029 191.52 580.675 191.104C581.764 190.402 582.01 189.159 581.144 187.814L579.151 184.72L572.426 189.052L574.592 192.415C575.484 193.801 576.758 194.065 577.875 193.345C578.628 192.86 578.927 192.173 578.768 191.305ZM580.06 188.436C580.502 189.122 580.436 189.64 579.858 190.012C579.252 190.402 578.74 190.257 578.298 189.571L577.076 187.674L578.838 186.539L580.06 188.436ZM574.225 189.511L576.04 188.341L577.427 190.494C577.869 191.18 577.775 191.773 577.224 192.128C576.632 192.509 576.053 192.349 575.611 191.663L574.225 189.511ZM583.776 200.467C583.968 200.381 584.151 200.282 584.326 200.169C585.308 199.537 585.943 198.69 586.222 197.616C586.522 196.547 586.352 195.514 585.72 194.533C585.052 193.497 584.17 192.866 583.073 192.64C581.976 192.414 580.921 192.638 579.912 193.287C578.89 193.946 578.259 194.828 578.011 195.92C577.785 197.018 578.012 198.108 578.697 199.171C579.546 200.489 580.69 201.142 582.123 201.151L582.047 199.792C581.128 199.813 580.389 199.375 579.817 198.487C578.994 197.21 579.095 195.831 580.145 194.831L583.776 200.467ZM584.617 195.243C585.31 196.319 585.209 197.64 584.061 198.665L581.167 194.173C582.481 193.612 583.811 193.992 584.617 195.243ZM587.914 198.324L586.785 199.051L588.266 201.352L582.671 204.956L583.425 206.126L589.02 202.522L590.493 204.808L591.623 204.08L587.914 198.324ZM587.251 212.449C588.091 213.754 589.514 214.455 590.949 214.349L590.886 212.981C589.931 213.064 588.988 212.605 588.407 211.704C587.974 211.032 587.839 210.319 588.002 209.567C588.173 208.829 588.591 208.236 589.263 207.803C589.949 207.361 590.661 207.226 591.405 207.375C592.157 207.538 592.749 207.955 593.182 208.628C593.763 209.529 593.777 210.586 593.281 211.381L594.479 211.999C595.217 210.781 595.184 209.223 594.326 207.891C593.676 206.883 592.794 206.252 591.674 206.021C590.569 205.782 589.518 205.983 588.509 206.633C587.5 207.283 586.883 208.156 586.63 209.271C586.391 210.376 586.601 211.44 587.251 212.449ZM595.123 216.663L600.449 217.781L599.479 216.274L594.635 215.284L597.607 213.369L596.853 212.199L590.128 216.532L590.882 217.702L594.07 215.648L592.857 220.768L593.793 222.221L595.123 216.663ZM597.244 223.175L601.965 220.134L601.22 218.977L594.494 223.309L595.101 224.251L602.222 224.935L597.501 227.977L598.246 229.133L604.972 224.801L604.365 223.859L597.244 223.175ZM610.178 230.667L611.2 230.008L608.861 226.377L607.838 227.035L610.178 230.667ZM602.143 230.78L606.864 227.739L606.119 226.582L599.394 230.915L600 231.856L607.122 232.541L602.401 235.582L603.146 236.739L609.871 232.406L609.264 231.465L602.143 230.78Z" fill="white"/>
<path d="M519.2 516.8V528H520.688V518.208H525.84V528H527.328V516.8H519.2ZM534.003 519.792C532.675 519.792 531.667 520.32 530.979 521.376V520H529.587V531.2H530.979V526.624C531.667 527.68 532.675 528.208 534.003 528.208C535.123 528.208 536.083 527.808 536.867 526.992C537.651 526.176 538.051 525.168 538.051 524C538.051 522.832 537.651 521.84 536.867 521.024C536.083 520.208 535.123 519.792 534.003 519.792ZM533.827 526.864C533.011 526.864 532.339 526.592 531.795 526.048C531.251 525.488 530.979 524.816 530.979 524C530.979 523.184 531.251 522.512 531.795 521.968C532.339 521.408 533.011 521.136 533.827 521.136C534.627 521.136 535.299 521.408 535.843 521.968C536.387 522.512 536.659 523.184 536.659 524C536.659 524.816 536.387 525.488 535.843 526.048C535.299 526.592 534.627 526.864 533.827 526.864ZM541.088 525.616V520H539.712V528H540.832L545.264 522.384V528H546.64V520H545.52L541.088 525.616ZM554.087 523.888C554.663 523.52 554.951 522.944 554.951 522.176C554.951 520.88 554.039 520 552.439 520H548.759V528H552.759C554.407 528 555.319 527.072 555.319 525.744C555.319 524.848 554.903 524.224 554.087 523.888ZM552.375 521.248C553.191 521.248 553.591 521.584 553.591 522.272C553.591 522.992 553.191 523.344 552.375 523.344H550.119V521.248H552.375ZM550.119 526.736V524.576H552.679C553.495 524.576 553.943 524.976 553.943 525.632C553.943 526.336 553.495 526.736 552.679 526.736H550.119ZM563.574 526.992C564.39 526.176 564.806 525.184 564.806 524C564.806 522.816 564.39 521.824 563.574 521.008C562.758 520.192 561.75 519.792 560.582 519.792C559.414 519.792 558.406 520.192 557.59 521.008C556.774 521.824 556.374 522.816 556.374 524C556.374 525.184 556.774 526.176 557.59 526.992C558.406 527.808 559.414 528.208 560.582 528.208C561.75 528.208 562.758 527.808 563.574 526.992ZM560.582 526.848C559.798 526.848 559.126 526.576 558.582 526.032C558.038 525.488 557.766 524.816 557.766 524C557.766 523.184 558.038 522.512 558.582 521.968C559.126 521.424 559.798 521.152 560.582 521.152C561.382 521.152 562.054 521.424 562.598 521.968C563.142 522.512 563.414 523.184 563.414 524C563.414 524.816 563.142 525.488 562.598 526.032C562.054 526.576 561.382 526.848 560.582 526.848ZM566.901 520V524.576C566.901 526.288 566.357 526.832 565.269 526.688V528C567.189 528.176 568.293 527.232 568.293 524.608V521.344H571.445V528H572.837V520H566.901ZM581.427 523.872L584.627 520H582.995L580.163 523.536V520H578.787V523.536L575.955 520H574.339L577.523 523.872L574.179 528H575.795L578.787 524.208V528H580.163V524.208L583.155 528H584.787L581.427 523.872ZM589.238 528.208C590.79 528.208 592.15 527.392 592.838 526.128L591.654 525.44C591.206 526.288 590.31 526.832 589.238 526.832C588.438 526.832 587.766 526.56 587.222 526.016C586.694 525.472 586.422 524.8 586.422 524C586.422 523.184 586.694 522.512 587.222 521.968C587.766 521.424 588.438 521.152 589.238 521.152C590.31 521.152 591.206 521.712 591.606 522.56L592.774 521.888C592.15 520.608 590.822 519.792 589.238 519.792C588.038 519.792 587.03 520.192 586.23 521.008C585.43 521.808 585.03 522.8 585.03 524C585.03 525.2 585.43 526.192 586.23 527.008C587.03 527.808 588.038 528.208 589.238 528.208ZM597.044 523.872L600.868 520H599.076L595.62 523.536V520H594.228V528H595.62V524.208L599.268 528H600.996L597.044 523.872ZM603.666 525.616V520H602.29V528H603.41L607.842 522.384V528H609.218V520H608.098L603.666 525.616ZM616.969 518.8V517.584H612.649V518.8H616.969ZM612.713 525.616V520H611.337V528H612.457L616.889 522.384V528H618.265V520H617.145L612.713 525.616Z" fill="white"/>
<path d="M307.281 233.329C308.186 232.929 308.723 232.232 308.905 231.256C309.064 230.407 308.897 229.644 308.408 228.95C307.919 228.256 307.249 227.838 306.384 227.677L301.98 226.854L299.924 237.864L304.673 238.751C305.57 238.918 306.381 238.76 307.106 238.277C307.831 237.794 308.283 237.114 308.448 236.233C308.668 235.053 308.197 234.005 307.281 233.329ZM306.128 229.045C306.584 229.13 306.929 229.374 307.182 229.763C307.451 230.155 307.535 230.577 307.45 231.033C307.273 231.977 306.427 232.584 305.5 232.411L302.558 231.861L303.187 228.496L306.128 229.045ZM301.642 236.769L302.309 233.198L305.596 233.812C306.083 233.903 306.46 234.153 306.726 234.56C307.007 234.971 307.101 235.428 307.01 235.916C306.822 236.922 305.92 237.568 304.929 237.383L301.642 236.769ZM317.232 234.358C316.75 233.194 315.856 232.49 314.55 232.246C313.449 232.04 312.429 232.273 311.509 232.931C310.588 233.589 310.013 234.491 309.799 235.639C309.584 236.787 309.792 237.851 310.413 238.797C311.034 239.744 311.904 240.313 313.005 240.519C314.311 240.763 315.398 240.429 316.269 239.517L316.016 240.869L317.384 241.125L318.853 233.261L317.485 233.005L317.232 234.358ZM313.425 239.23C312.638 239.083 312.028 238.692 311.593 238.058C311.161 237.407 311.017 236.697 311.167 235.895C311.317 235.092 311.707 234.482 312.342 234.047C312.98 233.596 313.69 233.452 314.477 233.599C315.279 233.749 315.889 234.14 316.321 234.79C316.756 235.425 316.9 236.135 316.75 236.937C316.6 237.74 316.21 238.35 315.572 238.801C314.938 239.236 314.227 239.38 313.425 239.23ZM324.037 238.168L327.579 234.891L325.975 234.591L323.435 236.949L321.917 233.833L320.297 233.531L322.43 237.884L318.655 241.362L320.259 241.662L323.032 239.104L324.679 242.488L326.283 242.787L324.037 238.168ZM329.342 240.933L330.373 235.413L329.021 235.16L327.552 243.024L328.653 243.23L334.04 238.523L333.009 244.044L334.362 244.296L335.831 236.432L334.73 236.227L329.342 240.933ZM337.033 236.657L336.786 237.978L339.476 238.48L338.254 245.023L339.622 245.279L340.844 238.736L343.518 239.235L343.764 237.914L337.033 236.657ZM350.01 246.194C350.962 245.541 351.553 244.642 351.77 243.479C351.988 242.315 351.761 241.263 351.109 240.311C350.456 239.359 349.539 238.781 348.391 238.567C347.243 238.352 346.178 238.56 345.226 239.213C344.274 239.865 343.699 240.767 343.482 241.93C343.264 243.094 343.475 244.143 344.128 245.095C344.78 246.047 345.697 246.625 346.845 246.839C347.994 247.054 349.058 246.846 350.01 246.194ZM347.095 245.503C346.324 245.359 345.714 244.968 345.279 244.333C344.844 243.699 344.7 242.988 344.85 242.186C345 241.384 345.391 240.773 346.025 240.338C346.66 239.903 347.37 239.759 348.141 239.903C348.927 240.05 349.538 240.441 349.973 241.076C350.408 241.71 350.552 242.421 350.402 243.223C350.252 244.025 349.861 244.636 349.227 245.071C348.592 245.505 347.882 245.649 347.095 245.503ZM358.641 244.648C359.275 244.392 359.664 243.879 359.805 243.124C360.043 241.85 359.308 240.817 357.735 240.524L354.118 239.848L352.649 247.712L356.581 248.446C358.201 248.749 359.268 248.004 359.512 246.699C359.676 245.818 359.382 245.128 358.641 244.648ZM357.443 241.739C358.245 241.888 358.577 242.292 358.451 242.968C358.318 243.676 357.86 243.949 357.058 243.799L354.841 243.385L355.226 241.324L357.443 241.739ZM354.218 246.719L354.614 244.596L357.131 245.066C357.933 245.216 358.3 245.691 358.18 246.336C358.05 247.028 357.537 247.339 356.734 247.189L354.218 246.719ZM364.232 250.087C365.758 250.372 367.245 249.82 368.153 248.703L367.115 247.81C366.519 248.561 365.539 248.931 364.485 248.734C363.699 248.588 363.088 248.197 362.653 247.562C362.234 246.93 362.09 246.22 362.237 245.434C362.387 244.631 362.777 244.021 363.396 243.583C364.031 243.148 364.741 243.004 365.528 243.151C366.582 243.348 367.36 244.063 367.597 244.97L368.869 244.524C368.49 243.151 367.335 242.105 365.778 241.814C364.598 241.594 363.534 241.802 362.597 242.457C361.664 243.097 361.089 243.998 360.868 245.178C360.648 246.358 360.859 247.406 361.496 248.355C362.135 249.288 363.053 249.867 364.232 250.087ZM372.702 247.258L377.172 244.154L375.41 243.825L371.364 246.666L372.013 243.19L370.644 242.935L369.176 250.799L370.544 251.054L371.24 247.327L374.13 251.724L375.829 252.041L372.702 247.258ZM378.891 250.188L379.923 244.668L378.57 244.415L377.101 252.279L378.202 252.485L383.59 247.778L382.559 253.298L383.911 253.551L385.38 245.687L384.279 245.482L378.891 250.188ZM393.22 245.931L393.443 244.735L389.196 243.942L388.973 245.137L393.22 245.931ZM387.784 251.849L388.816 246.329L387.463 246.076L385.994 253.94L387.095 254.146L392.483 249.439L391.452 254.96L392.804 255.212L394.273 247.348L393.172 247.143L387.784 251.849Z" fill="white"/>
<path fill-rule="evenodd" clip-rule="evenodd" d="M298.604 74.2684C298.834 74.0383 299.494 73.6382 299.874 73.5682C300.094 73.5282 300.234 73.5182 300.374 73.5982C301.114 73.5282 302.305 74.7085 302.585 75.0386C302.875 75.3787 303.165 75.6788 303.485 76.0089C303.735 76.2589 304.175 76.729 304.545 76.8691C304.665 77.0591 305.165 77.1392 305.436 77.1892C306.996 77.4692 307.936 76.499 308.806 75.4787L309.457 74.8085C309.737 74.5184 310.497 73.7682 311.007 73.7182C311.097 73.6182 311.157 73.6182 311.317 73.5882C312.617 73.3681 314.038 75.2787 314.688 75.9488C315.348 76.639 315.848 77.0791 316.879 77.2192C318.429 77.4292 319.279 76.3389 319.889 75.6888C320.43 75.1086 321.71 73.6582 322.46 73.6582C322.56 73.5582 322.48 73.5882 322.7 73.5582C322.73 73.5582 322.9 73.5482 322.94 73.5482C323.13 73.5482 323.25 73.5482 323.36 73.6682C323.791 73.6682 324.681 74.3884 324.981 74.7285C325.191 74.9586 325.291 75.0786 325.491 75.1586C325.491 74.7485 325.541 72.978 325.401 72.778C325.381 72.7579 324.821 72.2878 324.741 72.2278C324.491 72.0478 324.311 71.9477 324.021 71.8077C323.15 71.4976 322.64 71.4976 321.78 71.7077C321.63 71.8077 321.39 71.8877 321.16 72.0378C319.659 73.018 318.689 75.1686 317.569 75.0986C317.439 75.2386 316.849 75.2486 316.719 75.0986C315.818 75.1186 314.688 73.3281 313.658 72.4279C313.028 71.8777 312.657 71.7977 312.557 71.7077C311.607 71.4876 311.237 71.5076 310.327 71.7877C310.107 71.9477 309.897 72.0077 309.677 72.1878L308.636 73.1781C308.476 73.3781 308.326 73.5081 308.176 73.7082L307.176 74.7385C306.696 75.0886 306.346 75.2186 305.615 75.1686C305.425 75.1386 305.395 75.1686 305.285 75.0386C304.505 75.0486 303.245 72.978 301.984 72.0878C301.304 71.6076 300.464 71.4176 299.494 71.6476C299.134 71.7377 298.724 71.9477 298.444 72.1378C298.174 72.3278 297.813 72.6379 297.603 72.868V75.1486C297.783 75.0786 297.983 74.8485 298.133 74.6885C298.344 74.4684 298.384 74.4584 298.604 74.2784V74.2684Z" fill="#F4F3F4"/>
<path fill-rule="evenodd" clip-rule="evenodd" d="M301.173 62.0451C301.903 62.4352 302.513 63.0954 303.004 63.6956C303.174 63.9056 303.364 64.0256 303.544 64.2457C304.414 65.266 305.404 65.5861 306.785 65.306C307.085 65.0859 306.965 65.386 307.875 64.6258C308.395 64.1857 309.305 63.0854 309.946 62.5252C311.856 60.8548 312.876 62.3352 313.957 63.3855C314.047 63.4755 314.137 63.5255 314.217 63.6155L315.087 64.5858C315.357 64.7058 315.487 64.9159 315.807 65.0959C315.957 65.186 316.627 65.376 316.677 65.426C316.987 65.396 317.188 65.456 317.538 65.406C318.688 65.226 319.348 64.5158 320.148 63.6255C320.849 62.8453 322.089 61.3849 323.409 61.845C324.44 62.2051 325.07 63.1354 325.47 63.3555C325.47 61.0348 325.68 61.1248 324.69 60.4046C324.47 60.2446 324.089 60.0846 323.959 59.9645C322.889 59.7044 322.689 59.6944 321.599 59.9645C321.479 60.0645 321.339 60.1146 321.209 60.1946C320.619 60.5447 319.978 61.2549 319.518 61.795C318.868 62.5552 318.258 63.3755 317.158 63.3855C315.827 63.3955 315.247 62.2151 314.507 61.4849C314.347 61.3349 314.327 61.2849 314.197 61.1349C313.276 60.1046 311.926 59.3644 310.476 59.9345C309.435 60.3446 309.015 61.0448 308.345 61.705L307.715 62.3852C306.675 63.6255 305.384 63.7756 304.234 62.5852C302.904 61.2049 301.783 59.2343 299.393 59.8845C298.632 60.0946 298.242 60.5047 297.772 60.9048C297.572 61.0748 297.582 61.0648 297.582 61.4149V63.3654L297.842 63.1754C298.382 62.6252 299.333 61.775 300.133 61.765C300.443 61.765 300.973 61.9251 301.163 62.0751L301.173 62.0451Z" fill="#F4F3F4"/>
<path fill-rule="evenodd" clip-rule="evenodd" d="M310.657 67.8067C310.797 67.6866 310.857 67.6666 311.037 67.6766C311.667 67.0165 313.018 68.1968 313.438 68.5769L314.158 69.2871C314.988 70.1373 316.048 71.8278 318.329 70.9575C318.949 70.7175 319.499 70.0273 319.869 69.6472C320.019 69.4871 320.08 69.4871 320.23 69.2971C320.35 69.137 320.44 69.067 320.57 68.917C321.2 68.2268 322.26 67.2765 323.33 67.5666C323.751 67.6867 324.851 68.3868 324.981 68.7369C325.251 68.837 325.181 68.977 325.471 69.1071C325.471 68.4269 325.381 67.4466 325.471 66.8064C325.221 66.6464 325.061 66.4763 324.801 66.2662C324.651 66.1362 324.181 65.9061 324.091 65.7661C323.751 65.7361 323.4 65.5561 322.91 65.5261C322.68 65.516 322.45 65.5261 322.24 65.5661C322.04 65.5961 321.9 65.6661 321.72 65.6861C321.57 65.7861 321.36 65.8661 321.18 65.9862C321 66.1062 320.88 66.2062 320.71 66.3363C320.26 66.6864 319.619 67.4566 319.149 67.9667C318.929 68.2068 318.729 68.5269 318.359 68.7669C317.579 69.2871 316.749 69.3171 315.938 68.7669C315.728 68.6269 315.658 68.5269 315.508 68.3768L314.578 67.3365C314.508 67.2465 314.538 67.2966 314.478 67.2265C314.418 67.1565 314.448 67.2065 314.408 67.1365L314.168 66.8364C313.958 66.7064 313.678 66.3963 313.428 66.1962C313.168 65.9862 312.898 65.8661 312.608 65.7061C312.147 65.5861 311.837 65.486 311.297 65.5261C310.777 65.5661 310.467 65.7761 310.117 65.8161C310.037 65.9362 309.217 66.4563 308.726 67.0565L307.526 68.4369C307.346 68.6369 306.826 68.997 306.416 69.067C305.105 69.5972 304.115 68.1668 303.535 67.5766C302.855 66.8764 302.845 66.6364 301.744 65.9062C301.314 65.7161 301.174 65.6161 300.634 65.546C298.974 65.326 297.643 66.7264 297.603 66.8864V69.1071L297.863 68.927C297.923 68.877 297.973 68.8269 298.023 68.7669C298.374 68.3668 298.644 68.1868 299.144 67.8567C300.534 66.9465 301.764 68.1068 302.665 69.087C303.565 70.0673 304.555 71.2976 305.956 71.2076C307.586 71.1076 308.186 70.0273 309.177 69.067C309.747 68.5169 309.847 68.2368 310.647 67.8167L310.657 67.8067Z" fill="#F4F3F4"/>
<path fill-rule="evenodd" clip-rule="evenodd" d="M275.997 236.332C276.597 236.332 277.087 236.822 277.087 237.422C277.087 238.022 276.597 238.513 275.997 238.513C275.396 238.513 274.906 238.022 274.906 237.422C274.906 236.822 275.396 236.332 275.997 236.332ZM275.946 239.943H276.947L278.557 249.716V255.947H276.667V251.396L275.946 250.776L275.226 251.396V255.947H273.336V249.716L274.946 239.943H275.946ZM271.255 257.698H280.598V264.69H271.255V257.698ZM275.926 260.099C275.326 260.099 274.836 260.589 274.836 261.189C274.836 261.789 275.326 262.279 275.926 262.279C276.527 262.279 277.017 261.789 277.017 261.189C277.017 260.589 276.527 260.099 275.926 260.099ZM284.459 273.042V277.873H287.149V279.884H264.693V277.873H267.394V273.042L269.125 271.402V266.36H282.998V271.402L284.459 273.042Z" fill="#F4F3F4"/>
<path fill-rule="evenodd" clip-rule="evenodd" d="M401.371 235.634H403.821L410.113 215.989L416.755 235.885H419.796L426.438 215.989L432.729 235.634H435.18L426.477 209.777L418.285 233.694L410.093 209.777L401.391 235.634H401.371ZM397.93 237.515H438.601V239.586H397.93V237.515Z" fill="#F4F3F4"/>
<path fill-rule="evenodd" clip-rule="evenodd" d="M581.28 294.761V297.031H539.879V294.761C539.879 294.761 546.161 293.961 548.881 291.82C553.623 288.209 567.527 288.209 572.278 291.82C574.999 293.961 581.28 294.761 581.28 294.761Z" fill="#F4F3F4"/>
<path fill-rule="evenodd" clip-rule="evenodd" d="M538.561 291.56V293.291C542.212 293.291 546.683 291.75 549.654 289.66C552.555 287.619 560.457 287.629 560.457 287.629C560.457 287.629 568.349 287.629 571.26 289.66C574.231 291.75 578.692 293.291 582.353 293.291V291.56C577.321 291.49 575.171 289.99 571.9 288.039C566.248 285.228 554.685 285.228 549.034 288.039C545.753 289.99 543.612 291.49 538.581 291.56H538.561Z" fill="#F4F3F4"/>
<path d="M584.202 298.202H536.809V300.933H584.202V298.202Z" fill="#F4F3F4"/>
<path fill-rule="evenodd" clip-rule="evenodd" d="M660.932 319.568C661.022 319.568 661.512 319.748 661.672 319.788C663.023 320.118 664.363 320.158 665.763 319.988C666.714 319.868 667.564 319.648 668.524 319.537C669.404 319.437 669.965 319.427 670.845 319.427C671.945 319.427 673.216 319.788 673.986 320.548C674.226 320.788 674.446 321.048 674.616 321.348C674.756 321.598 674.866 321.838 674.966 322.138C675.156 322.708 675.266 323.389 675.266 324.139C675.266 325.079 674.676 326.709 674.376 327.62C674.166 328.25 673.926 328.86 673.686 329.48C673.626 329.65 673.686 329.95 673.696 330.14L673.876 332.531C673.876 332.841 673.926 332.901 673.846 333.191C673.626 333.961 673.456 334.742 673.236 335.512C673.175 335.712 673.135 335.902 673.085 336.092C672.885 336.882 672.675 337.622 672.485 338.413L672.035 340.153C671.945 340.513 671.995 340.863 671.435 341.033C671.095 341.133 669.695 341.083 669.284 341.083C669.875 338.553 670.485 336.022 671.065 333.501C670.885 333.381 670.385 332.731 670.225 332.531C669.965 332.191 669.705 331.841 669.484 331.461C669.424 331.361 669.375 331.291 669.315 331.191L668.674 330.03C668.564 329.82 668.274 329.25 668.254 329.06C668.164 329.06 668.084 329.14 668.004 329.19C667.904 329.24 667.834 329.29 667.744 329.33C667.664 329.37 667.574 329.41 667.484 329.45C667.014 329.65 666.524 329.83 665.994 329.94C665.773 329.99 665.583 330.04 665.353 330.08C663.503 330.38 662.063 330.33 660.192 330.11C659.662 330.05 659.152 329.94 658.632 329.84C658.531 329.82 658.461 329.8 658.371 329.78C658.271 329.76 658.211 329.73 658.101 329.73C658.021 330.08 657.801 331.571 657.731 332.041C657.531 333.341 657.301 334.642 657.111 335.952L656.861 337.512C656.791 337.943 656.471 339.813 656.441 340.243C656.431 340.383 656.391 340.503 656.341 340.613C656.131 341.113 655.681 341.223 655.141 341.223C653.98 341.223 654.14 341.323 654.16 340.933C654.16 340.803 654.16 340.663 654.16 340.533C654.16 340.403 654.18 340.313 654.18 340.153C654.18 339.993 654.19 339.893 654.2 339.773C654.2 339.653 654.2 339.513 654.2 339.393L654.24 338.633C654.25 338.503 654.24 338.363 654.24 338.233C654.27 337.732 654.31 337.212 654.31 336.712L654.36 335.952C654.37 335.682 654.38 335.442 654.38 335.172L654.49 332.901C654.49 332.661 654.54 332.381 654.54 332.141C654.54 331.981 654.56 331.911 654.56 331.781L654.58 331.201C654.58 331.101 654.6 331.121 654.6 331.021L654.78 328.45C654.73 328.34 654.3 327.88 653.91 326.93C653.54 326.009 653.47 325.269 653.33 324.319C653.29 324.009 653.23 323.138 653.23 322.838C653.23 322.708 653.23 322.568 653.23 322.438C653.23 322.308 653.21 322.218 653.21 322.058C653.21 321.768 653.19 321.558 653.19 321.278C653.19 321.128 653.17 321.078 653.17 320.918C653.17 320.408 653.06 319.678 652.85 319.227C652.79 319.097 652.64 318.807 652.48 318.797C652.46 319.017 652.26 319.357 652.15 319.517C651.74 320.138 650.879 320.608 650.049 320.608H649.779C649.419 320.608 649.159 320.498 648.639 320.498C647.969 320.498 647.138 320.818 646.698 321.058C646.588 320.988 645.998 320.388 645.898 320.258C645.748 320.058 645.588 319.898 645.588 319.587C645.588 319.437 645.648 319.247 645.708 319.147C645.818 318.967 646.088 318.677 646.238 318.517L647.048 317.617C647.108 317.557 647.128 317.527 647.178 317.457L647.718 316.867C647.929 316.607 648.179 316.347 648.399 316.097C648.669 315.796 648.959 315.506 649.209 315.196L649.619 314.736C649.669 314.676 649.719 314.646 649.759 314.586C649.659 314.436 649.399 314.166 649.269 314.006C649.229 313.956 649.209 313.946 649.159 313.886L648.249 312.806C648.189 312.746 648.189 312.756 648.169 312.666C648.299 312.636 648.549 312.476 648.679 312.416C650.009 311.825 651.44 311.325 652.98 311.325C654.37 311.325 655.251 311.565 656.401 312.185C656.511 312.245 656.611 312.306 656.701 312.376C656.941 312.536 657.181 312.716 657.401 312.906C657.451 312.956 657.471 312.976 657.531 313.026C658.161 313.506 659.122 314.886 659.452 315.546C659.512 315.666 659.562 315.746 659.622 315.866L659.942 316.557C660.282 317.397 660.612 318.267 660.792 319.157C660.822 319.297 660.852 319.447 660.882 319.587L660.932 319.568Z" fill="#F6F4F7"/>
<path fill-rule="evenodd" clip-rule="evenodd" d="M680.647 330.19C680.647 330.29 680.597 330.27 680.447 330.32L676.716 331.591L676.956 329.4C677.056 328.06 677.206 325.919 676.786 324.619C676.726 324.429 676.596 324.139 676.446 324.039C676.466 323.789 676.526 323.369 676.516 323.128L676.426 322.238C676.386 322.008 676.306 321.668 676.226 321.458L676.006 320.938C675.976 320.878 675.936 320.838 675.916 320.758C676.106 320.858 676.256 320.898 676.486 321.038L676.756 321.198C677.026 321.358 677.486 321.728 677.716 321.958C677.797 322.038 677.877 322.078 677.947 322.168C678.157 322.418 678.307 322.558 678.537 322.858C679.237 323.799 679.477 324.319 679.907 325.399C679.997 325.619 680.047 325.839 680.117 326.059C680.147 326.169 680.177 326.289 680.207 326.389C680.457 327.34 680.657 328.73 680.657 329.85V330.19H680.647Z" fill="#F6F4F7"/>
<path fill-rule="evenodd" clip-rule="evenodd" d="M653.608 328.67C653.608 329.21 653.498 329.27 653.498 329.45C653.368 329.48 653.238 329.53 653.108 329.58C652.818 329.68 650.448 330.491 650.347 330.501L650.888 333.841C650.918 334.011 650.948 334.212 650.978 334.402C651.088 335.082 651.148 335.512 650.558 336.112C650.478 336.192 650.417 336.222 650.327 336.282C650.187 336.372 649.577 336.552 649.417 336.592C649.417 336.482 649.357 336.312 649.327 336.192C649.297 336.062 649.257 335.912 649.227 335.782C649.157 335.512 649.087 335.242 649.027 334.982L648.027 330.961C647.877 330.35 647.737 329.89 648.057 329.26C648.217 328.94 648.487 328.68 648.797 328.51C649.277 328.25 649.987 327.95 650.488 327.7L652.528 326.729L652.748 327.27C652.928 327.7 653.168 328.1 653.458 328.45C653.518 328.52 653.618 328.62 653.618 328.67H653.608Z" fill="#F6F4F7"/>
<path fill-rule="evenodd" clip-rule="evenodd" d="M664.674 339.843L665.824 336.802C666.114 336.072 666.394 335.262 666.694 334.521C666.744 334.381 666.784 334.271 666.844 334.131C666.894 334.001 666.934 333.861 666.994 333.741L665.554 331.861C665.484 331.761 665.404 331.671 665.344 331.581C665.694 331.501 666.234 331.311 666.564 331.171L667.685 330.67C668.155 331.561 668.525 332.231 669.105 333.091C669.325 333.421 669.325 333.291 669.165 333.741C669.075 333.981 669.005 334.201 668.915 334.451L667.695 338.052C667.445 338.803 667.235 339.363 666.404 339.633C666.184 339.703 665.804 339.733 665.564 339.753L664.674 339.843Z" fill="#F6F4F7"/>
<path fill-rule="evenodd" clip-rule="evenodd" d="M384.436 454.375H418.595V465.399H406.232C406.232 464.768 406.232 464.188 406.232 463.838C406.232 460.917 404.151 458.497 401.581 458.497C399.01 458.497 396.929 460.887 396.929 463.838C396.929 464.258 396.929 464.818 396.929 465.399H384.426V454.375H384.436Z" fill="white" stroke="white" stroke-width="0.22" stroke-miterlimit="22.93"/>
<path fill-rule="evenodd" clip-rule="evenodd" d="M396.849 451.314L406.302 451.324L418.665 453.505H384.436L396.849 451.314Z" fill="white" stroke="white" stroke-width="0.22" stroke-miterlimit="22.93"/>
<path fill-rule="evenodd" clip-rule="evenodd" d="M396.799 445.603V449.824H406.291V445.663L396.799 445.603Z" fill="white" stroke="white" stroke-width="0.22" stroke-miterlimit="22.93"/>
<path fill-rule="evenodd" clip-rule="evenodd" d="M396.799 444.832L399.24 443.482L404.061 443.492L406.341 444.892L396.799 444.832Z" fill="white" stroke="white" stroke-width="0.22" stroke-miterlimit="22.93"/>
<path fill-rule="evenodd" clip-rule="evenodd" d="M399.4 440.711H400.471L400.481 439.491H401.381V434.35H401.661V439.491H402.611V440.711H403.772V442.772H399.4V440.711Z" fill="white" stroke="white" stroke-width="0.22" stroke-miterlimit="22.93"/>
<path fill-rule="evenodd" clip-rule="evenodd" d="M423.486 427.188H421.756V428.688H432.119V427.188H430.088C430.108 426.888 430.218 426.718 430.298 426.498C430.398 426.238 430.448 426.028 430.548 425.768C430.708 425.347 430.888 424.817 431.048 424.397C431.229 423.927 431.379 423.487 431.539 423.007C431.709 422.487 431.919 422.066 432.039 421.556C432.209 421.676 432.449 422.177 432.569 422.387L435.17 426.848C435.36 427.168 436.12 428.438 436.18 428.688C436.38 428.538 437.05 427.258 437.23 426.958L439.711 422.457C440.051 421.866 440.011 421.706 440.311 421.626L442.262 427.178H440.231V428.678H450.294C450.654 428.678 450.524 428.128 450.524 427.178C448.423 427.178 448.783 427.468 448.323 426.158C448.173 425.737 448.033 425.437 447.883 425.027L442.992 412.424C442.792 411.904 441.701 409.233 441.671 408.943C441.211 408.953 441.261 409.153 440.841 409.993L438.21 415.095C437.98 415.555 436.49 418.696 436.18 418.926C436.11 418.616 433.929 414.574 433.579 413.874C432.909 412.524 431.949 410.873 431.278 409.493C431.138 409.213 431.129 409.013 430.848 408.943C430.828 409.223 430.548 409.803 430.428 410.103C430.268 410.513 430.138 410.813 429.978 411.233L425.427 422.677C425.127 423.437 424.837 424.197 424.517 424.997L423.826 426.718C423.736 426.958 423.716 427.198 423.486 427.198V427.188Z" fill="#F4F3F4"/>
<path fill-rule="evenodd" clip-rule="evenodd" d="M451.485 430.419H420.937C419.066 426.518 418.856 421.516 420.326 417.425C420.517 416.895 420.737 416.455 420.947 415.945C421.127 415.485 421.387 415.055 421.647 414.614C421.797 414.364 421.907 414.194 422.047 413.964L422.467 413.334C423.477 411.884 425.178 410.173 426.658 409.193L428.619 408.003C430.479 407.002 433.57 406.172 436.251 406.172C443.323 406.172 448.884 410.413 451.595 416.055C453.586 420.196 453.626 425.357 451.835 429.639C451.705 429.939 451.565 430.109 451.495 430.419H451.485ZM455.386 422.177C455.316 420.716 455.066 419.246 454.626 417.735C453.916 415.315 452.435 412.394 450.745 410.573L449.885 409.633C448.674 408.423 447.494 407.422 446.003 406.532C443.523 405.042 440.062 403.832 437.061 403.832C434.67 403.832 433.68 403.792 431.279 404.432C430.129 404.732 428.869 405.182 427.878 405.682C424.418 407.423 421.337 410.143 419.466 413.564C417.926 416.375 416.936 419.396 416.936 422.677C416.936 425.467 417.166 427.428 418.056 429.889C418.206 430.299 419.176 432.809 419.566 432.809H452.745C453.015 432.809 453.656 431.279 453.776 430.989C454.696 428.658 455.256 426.348 455.376 423.997V422.167L455.386 422.177Z" fill="#F4F3F4"/>
<path fill-rule="evenodd" clip-rule="evenodd" d="M535.533 402.721H537.774C537.704 403.041 537.544 403.341 537.424 403.632L535.463 408.193C535.323 408.513 535.213 408.793 535.063 409.123C534.923 409.433 534.763 409.753 534.693 410.083H536.724C536.703 410.383 534.623 415.065 534.403 415.615C534.243 415.995 533.663 417.215 533.643 417.515H551.598C551.568 417.165 549.207 411.794 548.877 411.044C548.767 410.794 548.527 410.333 548.507 410.083H550.537C550.437 409.653 549.207 406.932 549.007 406.422C548.797 405.902 547.556 403.131 547.456 402.711H549.697C549.647 402.531 549.397 402.101 549.287 401.931L543.545 391.608C543.355 391.258 542.745 390.228 542.685 389.948H542.545C542.465 390.278 540.925 392.949 540.625 393.499C540.525 393.689 540.494 393.709 540.394 393.899L539.044 396.33C538.974 396.46 538.934 396.56 538.854 396.7C538.754 396.87 538.704 396.93 538.624 397.1L537.294 399.49C537.224 399.62 537.184 399.72 537.104 399.861C537.004 400.031 536.954 400.091 536.874 400.261C536.724 400.551 536.593 400.771 536.433 401.081C536.333 401.271 536.303 401.291 536.203 401.481C536.113 401.651 536.073 401.741 535.983 401.891C535.873 402.081 535.603 402.521 535.553 402.721H535.533Z" fill="#F4F3F4"/>
<path fill-rule="evenodd" clip-rule="evenodd" d="M526.979 404.832H529.219L526.108 411.134H528.169C528.089 411.494 527.609 412.344 527.419 412.714C527.099 413.364 525.108 417.175 525.078 417.535H531.32L533.56 412.204H531.53C531.6 411.884 531.76 411.584 531.88 411.294C532.02 410.984 532.14 410.694 532.28 410.364L533.861 406.682C534.001 406.352 534.121 406.062 534.261 405.752C534.381 405.492 534.591 405.082 534.611 404.772H532.02L533.89 401.381C534.001 401.171 534.041 401.081 534.161 400.881C534.551 400.231 536.051 397.34 536.361 396.98C536.131 396.54 534.331 393.589 534.261 393.259H534.121C534.061 393.529 533.871 393.729 533.721 393.979C532.76 395.599 531.54 397.38 530.56 399.03C530.41 399.28 530.29 399.481 530.13 399.721C529.97 399.981 529.839 400.191 529.669 400.451L527.859 403.342C527.549 403.842 527.229 404.312 526.959 404.832H526.979Z" fill="#F4F3F4"/>
<path fill-rule="evenodd" clip-rule="evenodd" d="M548.865 396.9C550.205 399.441 551.836 402.161 553.216 404.752H550.626C550.656 405.072 550.836 405.402 550.956 405.682L553.336 411.224C553.476 411.534 553.636 411.854 553.706 412.184H551.676L553.916 417.516H560.158C560.128 417.186 559.608 416.265 559.438 415.925C559.118 415.275 557.157 411.464 557.077 411.134H559.108L555.997 404.832H558.268L552.456 395.48C552.216 395.09 551.176 393.549 551.106 393.249H550.966C550.906 393.489 550.125 394.809 549.945 395.1L548.865 396.89V396.9Z" fill="#F4F3F4"/>
<path fill-rule="evenodd" clip-rule="evenodd" d="M533.081 422.717H524.658V424.888H560.578V422.717H552.156V419.556H549.985V422.717H543.673V419.556H541.563V422.717H535.251V419.556H533.081V422.717Z" fill="#F4F3F4"/>
<path d="M265.873 299.551C266.604 299.551 267.23 299.285 267.752 298.752C268.272 298.22 268.532 297.581 268.532 296.833C268.532 296.086 268.272 295.446 267.752 294.913C267.23 294.381 266.604 294.115 265.873 294.115C265.142 294.115 264.516 294.381 263.996 294.913C263.475 295.446 263.214 296.086 263.214 296.833C263.214 297.581 263.475 298.22 263.996 298.752C264.516 299.285 265.142 299.551 265.873 299.551ZM265.873 313.14C262.306 310.037 259.642 307.155 257.881 304.493C256.119 301.833 255.238 299.37 255.238 297.105C255.238 293.708 256.307 291.001 258.446 288.985C260.584 286.97 263.059 285.962 265.873 285.962C268.687 285.962 271.163 286.97 273.3 288.985C275.439 291.001 276.508 293.708 276.508 297.105C276.508 299.37 275.628 301.833 273.867 304.493C272.105 307.155 269.44 310.037 265.873 313.14Z" fill="#FFCC48"/>
<defs>
<linearGradient id="paint0_linear_1690_17851" x1="89.001" y1="114.5" x2="298.529" y2="597.496" gradientUnits="userSpaceOnUse">
<stop stop-color="#181D24" stop-opacity="0"/>
<stop offset="0.552083" stop-color="#181D24"/>
<stop offset="1" stop-color="#181D24" stop-opacity="0"/>
</linearGradient>
<linearGradient id="paint1_linear_1690_17851" x1="284" y1="2.4955e-05" x2="723" y2="249" gradientUnits="userSpaceOnUse">
<stop stop-color="#181D24" stop-opacity="0"/>
<stop offset="0.552083" stop-color="#181D24"/>
<stop offset="1" stop-color="#181D24" stop-opacity="0"/>
</linearGradient>
</defs>
</svg>
