<svg width="361" height="581" viewBox="0 0 361 581" fill="none" xmlns="http://www.w3.org/2000/svg">
<path opacity="0.08" fill-rule="evenodd" clip-rule="evenodd" d="M237.499 237.499C238.532 240.486 239.083 243.874 239.083 247.655C239.083 264.692 231.132 275.436 218.694 275.436C206.253 275.436 200.084 265.774 203.213 247.655C193.259 249.089 181.02 274.674 150.536 290.5C181.021 306.326 193.26 331.911 203.213 333.345C200.084 315.226 206.253 305.565 218.694 305.565C231.132 305.565 239.083 316.308 239.083 333.345C239.083 337.127 238.532 340.515 237.499 343.502C240.486 342.468 243.874 341.917 247.655 341.917C264.692 341.917 275.436 349.868 275.436 362.306C275.436 374.747 265.774 380.916 247.655 377.787C249.089 387.741 274.674 399.98 290.5 430.464C306.326 399.979 331.911 387.74 333.345 377.787C315.226 380.916 305.565 374.748 305.565 362.306C305.565 349.868 316.308 341.917 333.345 341.917C337.127 341.917 340.515 342.468 343.502 343.502C342.468 340.515 341.917 337.127 341.917 333.345C341.917 316.308 349.868 305.565 362.306 305.565C374.747 305.565 380.916 315.226 377.787 333.345C387.741 331.911 399.98 306.326 430.464 290.5C399.979 274.674 387.74 249.09 377.787 247.655C380.916 265.775 374.748 275.436 362.306 275.436C349.868 275.436 341.917 264.692 341.917 247.655C341.917 243.874 342.468 240.486 343.502 237.499C340.515 238.532 337.127 239.083 333.345 239.083C316.308 239.083 305.565 231.132 305.565 218.694C305.565 206.253 315.226 200.084 333.345 203.213C331.911 193.259 306.326 181.02 290.5 150.536C274.674 181.021 249.09 193.26 247.655 203.213C265.775 200.084 275.436 206.252 275.436 218.694C275.436 231.132 264.692 239.083 247.655 239.083C243.874 239.083 240.486 238.532 237.499 237.499ZM223.359 223.359C222.131 219.95 221.507 216.104 221.507 211.938C221.507 179.877 272.757 156.4 272.757 129.874C272.757 113.51 263.885 96.1071 249.089 96.1071C234.293 96.1071 230.183 103.844 233.04 111.693C235.893 119.543 249.089 114.494 249.089 132.516C249.089 150.534 235.893 153.938 216.927 153.938C197.961 153.938 181.291 136.649 181.291 111.692C181.291 86.7354 207.877 58.8009 249.089 58.8009C235.893 40.8025 249.393 19.6802 255.091 14.2375C260.794 8.79472 272.757 0 290.5 0C308.243 0 320.207 8.79441 325.909 14.2375C331.607 19.6803 345.106 40.8025 331.911 58.8009C373.123 58.8009 399.709 86.7365 399.709 111.692C399.709 136.648 383.04 153.938 364.073 153.938C345.106 153.938 331.911 150.534 331.911 132.516C331.911 114.494 345.107 119.543 347.96 111.693C350.817 103.843 346.707 96.1071 331.911 96.1071C317.114 96.1071 308.243 113.509 308.243 129.874C308.243 156.399 359.493 179.876 359.493 211.938C359.493 216.104 358.869 219.95 357.641 223.359C361.05 222.131 364.896 221.507 369.062 221.507C401.123 221.507 424.6 272.757 451.126 272.757C467.49 272.757 484.893 263.885 484.893 249.089C484.893 234.293 477.156 230.183 469.307 233.04C461.457 235.893 466.506 249.089 448.484 249.089C430.466 249.089 427.062 235.893 427.062 216.927C427.062 197.961 444.351 181.291 469.308 181.291C494.265 181.291 522.199 207.877 522.199 249.089C540.198 235.893 561.32 249.393 566.763 255.091C572.205 260.794 581 272.757 581 290.5C581 308.243 572.206 320.207 566.763 325.909C561.32 331.607 540.198 345.106 522.199 331.911C522.199 373.123 494.264 399.709 469.308 399.709C444.352 399.709 427.062 383.04 427.062 364.073C427.062 345.106 430.466 331.911 448.484 331.911C466.506 331.911 461.457 345.107 469.307 347.96C477.157 350.817 484.893 346.707 484.893 331.911C484.893 317.114 467.491 308.243 451.126 308.243C424.601 308.243 401.124 359.493 369.062 359.493C364.896 359.493 361.05 358.869 357.641 357.641C358.869 361.05 359.493 364.896 359.493 369.062C359.493 401.123 308.243 424.6 308.243 451.126C308.243 467.49 317.115 484.893 331.911 484.893C346.707 484.893 350.817 477.156 347.96 469.307C345.107 461.457 331.911 466.506 331.911 448.484C331.911 430.466 345.107 427.062 364.073 427.062C383.039 427.062 399.709 444.351 399.709 469.308C399.709 494.265 373.123 522.199 331.911 522.199C345.107 540.198 331.607 561.32 325.909 566.763C320.206 572.205 308.243 581 290.5 581C272.757 581 260.793 572.206 255.091 566.763C249.393 561.32 235.894 540.198 249.089 522.199C207.877 522.199 181.291 494.264 181.291 469.308C181.291 444.352 197.96 427.062 216.927 427.062C235.894 427.062 249.089 430.466 249.089 448.484C249.089 466.506 235.893 461.457 233.04 469.307C230.183 477.157 234.293 484.893 249.089 484.893C263.886 484.893 272.757 467.491 272.757 451.126C272.757 424.601 221.507 401.124 221.507 369.062C221.507 364.896 222.131 361.05 223.359 357.641C219.95 358.869 216.104 359.493 211.938 359.493C179.877 359.493 156.4 308.243 129.874 308.243C113.51 308.243 96.1071 317.115 96.1071 331.911C96.1071 346.707 103.844 350.817 111.693 347.96C119.543 345.107 114.494 331.911 132.516 331.911C150.534 331.911 153.938 345.107 153.938 364.073C153.938 383.039 136.649 399.709 111.692 399.709C86.7354 399.709 58.8009 373.123 58.8009 331.911C40.8025 345.107 19.6802 331.607 14.2375 325.909C8.79472 320.206 0 308.243 0 290.5C0 272.757 8.79441 260.793 14.2375 255.091C19.6803 249.393 40.8025 235.894 58.8009 249.089C58.8009 207.877 86.7364 181.291 111.692 181.291C136.648 181.291 153.938 197.96 153.938 216.927C153.938 235.894 150.534 249.089 132.516 249.089C114.494 249.089 119.543 235.893 111.693 233.04C103.843 230.183 96.1071 234.293 96.1071 249.089C96.1071 263.886 113.509 272.757 129.874 272.757C156.399 272.757 179.876 221.507 211.938 221.507C216.104 221.507 219.95 222.131 223.359 223.359Z" fill="#AC7E65"/>
</svg>
