<svg width="613" height="800" viewBox="0 0 613 800" fill="none" xmlns="http://www.w3.org/2000/svg">
<path d="M360.418 342.228L194.102 532.394C141.173 483.632 32.7076 385.832 14.9889 375.771C14.9753 375.764 14.9618 375.756 14.9484 375.748C14.5911 375.547 14.8509 375.676 14.9531 375.743L175.465 183.003L360.418 342.228Z" fill="url(#paint0_linear_57_787)"/>
<path d="M174.116 589.767L440.349 813.454M109.652 671.635L147.041 705.8L177.983 677.437L228.909 722.561L252.116 698.065L293.373 735.453L274.678 763.817L364.927 835.371L417.142 760.594L547.358 605.238L324.315 414.427" stroke="#43515C" stroke-opacity="0.7" stroke-width="3" stroke-linecap="round" stroke-linejoin="round"/>
<path d="M479.027 465.353L451.308 499.518L551.226 582.676L569.276 562.047L517.705 496.94L479.027 465.353Z" fill="#263139"/>
<path d="M185.607 421.4C185.607 423.016 186.167 424.376 187.287 425.512C188.407 426.648 189.783 427.208 191.399 427.208C193.015 427.208 194.391 426.648 195.511 425.512C196.647 424.376 197.207 423.016 197.207 421.4C197.207 419.784 196.647 418.408 195.511 417.288C194.391 416.152 193.015 415.592 191.399 415.592C189.783 415.592 188.407 416.152 187.287 417.288C186.167 418.408 185.607 419.784 185.607 421.4ZM195.719 421.4C195.719 422.632 195.303 423.656 194.471 424.504C193.655 425.336 192.631 425.752 191.399 425.752C190.167 425.752 189.143 425.336 188.311 424.504C187.495 423.656 187.079 422.632 187.079 421.4C187.079 420.168 187.495 419.128 188.311 418.296C189.143 417.448 190.167 417.032 191.399 417.032C192.631 417.032 193.655 417.448 194.471 418.296C195.303 419.128 195.719 420.168 195.719 421.4ZM197.956 419V420.344H200.692V427H202.084V420.344H204.804V419H197.956ZM212.404 419H206.5V422.712C206.5 423.976 206.244 424.968 205.732 425.672H204.756V429.144H206.132V427H212.132V429.144H213.508V425.672H212.404V419ZM207.316 425.672C207.684 424.888 207.876 423.912 207.876 422.712V420.296H211.028V425.672H207.316ZM222.376 423.64C222.408 423.432 222.424 423.224 222.424 423.016C222.424 421.848 222.056 420.856 221.304 420.04C220.568 419.208 219.608 418.792 218.44 418.792C217.208 418.792 216.2 419.192 215.416 419.992C214.632 420.792 214.248 421.8 214.248 423C214.248 424.216 214.648 425.224 215.432 426.024C216.232 426.808 217.272 427.208 218.536 427.208C220.104 427.208 221.272 426.6 222.056 425.4L220.872 424.728C220.392 425.512 219.624 425.896 218.568 425.896C217.048 425.896 215.944 425.064 215.672 423.64H222.376ZM218.44 420.104C219.72 420.104 220.776 420.904 221.016 422.424H215.672C215.912 421.016 216.952 420.104 218.44 420.104ZM224.447 419V423.576C224.447 425.288 223.903 425.832 222.815 425.688V427C224.735 427.176 225.839 426.232 225.839 423.608V420.344H228.991V427H230.383V419H224.447ZM236.493 419V427H237.885V420.328H242.029V427H243.421V419H236.493ZM249.955 418.792C248.627 418.792 247.619 419.32 246.931 420.376V419H245.539V430.2H246.931V425.624C247.619 426.68 248.627 427.208 249.955 427.208C251.075 427.208 252.035 426.808 252.819 425.992C253.603 425.176 254.003 424.168 254.003 423C254.003 421.832 253.603 420.84 252.819 420.024C252.035 419.208 251.075 418.792 249.955 418.792ZM249.779 425.864C248.963 425.864 248.291 425.592 247.747 425.048C247.203 424.488 246.931 423.816 246.931 423C246.931 422.184 247.203 421.512 247.747 420.968C248.291 420.408 248.963 420.136 249.779 420.136C250.579 420.136 251.251 420.408 251.795 420.968C252.339 421.512 252.611 422.184 252.611 423C252.611 423.816 252.339 424.488 251.795 425.048C251.251 425.592 250.579 425.864 249.779 425.864ZM262.416 425.992C263.232 425.176 263.648 424.184 263.648 423C263.648 421.816 263.232 420.824 262.416 420.008C261.6 419.192 260.592 418.792 259.424 418.792C258.256 418.792 257.248 419.192 256.432 420.008C255.616 420.824 255.216 421.816 255.216 423C255.216 424.184 255.616 425.176 256.432 425.992C257.248 426.808 258.256 427.208 259.424 427.208C260.592 427.208 261.6 426.808 262.416 425.992ZM259.424 425.848C258.64 425.848 257.968 425.576 257.424 425.032C256.88 424.488 256.608 423.816 256.608 423C256.608 422.184 256.88 421.512 257.424 420.968C257.968 420.424 258.64 420.152 259.424 420.152C260.224 420.152 260.896 420.424 261.44 420.968C261.984 421.512 262.256 422.184 262.256 423C262.256 423.816 261.984 424.488 261.44 425.032C260.896 425.576 260.224 425.848 259.424 425.848ZM271.857 419H265.953V422.712C265.953 423.976 265.697 424.968 265.185 425.672H264.209V429.144H265.585V427H271.585V429.144H272.961V425.672H271.857V419ZM266.769 425.672C267.137 424.888 267.329 423.912 267.329 422.712V420.296H270.481V425.672H266.769ZM280.773 420.376C280.085 419.32 279.077 418.792 277.749 418.792C276.629 418.792 275.669 419.208 274.885 420.024C274.101 420.84 273.701 421.832 273.701 423C273.701 424.168 274.101 425.176 274.885 425.992C275.669 426.808 276.629 427.208 277.749 427.208C279.077 427.208 280.085 426.68 280.773 425.624V427H282.165V419H280.773V420.376ZM277.925 425.864C277.125 425.864 276.453 425.592 275.909 425.048C275.365 424.488 275.093 423.816 275.093 423C275.093 422.184 275.365 421.512 275.909 420.968C276.453 420.408 277.125 420.136 277.925 420.136C278.741 420.136 279.413 420.408 279.957 420.968C280.501 421.512 280.773 422.184 280.773 423C280.773 423.816 280.501 424.488 279.957 425.048C279.413 425.592 278.741 425.864 277.925 425.864ZM290.754 422.872L293.954 419H292.322L289.49 422.536V419H288.114V422.536L285.282 419H283.666L286.85 422.872L283.506 427H285.122L288.114 423.208V427H289.49V423.208L292.482 427H294.114L290.754 422.872Z" fill="white"/>
<path d="M283.704 549.155L272.1 563.981L261.142 554.312L237.935 581.386L286.282 622.643L308.844 595.568L297.886 585.899L308.844 571.717L334.63 592.99L288.861 648.428L212.15 583.965L259.208 527.882L283.704 549.155Z" fill="#51606C"/>
<path d="M403.605 650.615L392.002 665.441L381.043 655.772L357.836 682.846L406.183 724.103L428.746 697.028L417.787 687.359L428.746 673.177L454.531 694.45L408.762 749.888L332.051 685.425L379.109 629.342L403.605 650.615Z" fill="#51606C"/>
<path d="M305.727 520.884L318.472 507.027L307.151 497.784L330.097 470.488L378.658 511.492L355.608 538.152L344.287 528.91L332.073 542.026L357.251 564.014L404.52 509.849L328.453 444.626L280.758 500.169L305.727 520.884Z" fill="#51606C"/>
<path d="M425.628 622.346L438.373 608.489L427.052 599.246L449.998 571.95L498.559 612.954L475.509 639.614L464.188 630.372L451.974 643.488L477.153 665.476L524.421 611.311L448.354 546.088L400.659 601.631L425.628 622.346Z" fill="#51606C"/>
<path d="M223.112 199.764C198.616 184.938 59.3711 14.7549 59.3711 0.573008C70.9745 -0.716196 78.7101 0.572899 78.7101 0.572899C110.942 50.2092 220.318 175.483 233.426 186.227C304.335 246.822 447.831 369.045 454.535 373.17C462.915 378.327 502.882 424.096 511.907 439.567C520.932 455.039 621.494 581.386 634.387 598.791C644.701 612.715 682.086 635.965 708.516 650.362V679.37C696.482 667.122 685.829 650.878 667.263 647.783C644.057 643.916 487.411 443.435 478.386 424.096C469.361 404.757 247.608 214.591 223.112 199.764Z" fill="url(#paint1_linear_57_787)"/>
<path d="M1.99927 775.42L83.2229 689.684L110.297 669.056L393.291 323.533M138.017 676.147L149.62 687.75L179.918 658.097L226.331 698.709L240.513 685.816L177.339 629.733L149.62 655.519L154.132 660.031L138.017 676.147Z" stroke="#43515C" stroke-opacity="0.7" stroke-width="3" stroke-linecap="round" stroke-linejoin="round"/>
<path d="M249.538 500.808L476.448 690.329M303.042 653.585L404.894 534.973M320.447 670.99L422.299 552.378M645.986 695.486L598.928 654.875L555.093 706.445L574.432 724.495L603.441 691.619L645.986 728.363V695.486Z" stroke="#43515C" stroke-opacity="0.8" stroke-width="3" stroke-linecap="round" stroke-linejoin="round"/>
<path d="M228.909 739.321L225.042 755.437L238.579 763.172L251.472 752.858L262.43 739.321L267.587 726.428L255.984 716.114L243.091 723.205L228.909 739.321Z" fill="#263139"/>
<path d="M548.647 756.726L534.466 742.544L507.391 773.486L511.259 777.999L485.474 805.073L500.945 819.9L527.375 789.602L522.862 785.734L548.647 756.726Z" fill="url(#paint2_linear_57_787)"/>
<path d="M154.133 736.098L96.7605 699.998L21.9832 789.602L59.3718 814.743L94.8266 837.949L154.133 736.098Z" fill="url(#paint3_linear_57_787)"/>
<path d="M219.241 777.999L186.459 834.767L133.504 805.073L158.001 756.726H181.207L219.241 777.999Z" fill="url(#paint4_linear_57_787)"/>
<path d="M473.87 464.063L376.531 376.393L345.588 409.269L445.506 497.584L473.87 464.063Z" fill="url(#paint5_linear_57_787)"/>
<path d="M143.818 651.651L177.339 620.064L250.182 683.238L228.909 705.801L180.562 661.321L148.33 691.619L132.859 674.214L149.62 658.742L143.818 651.651Z" fill="#263139"/>
<path d="M299.999 480V444H185.999" stroke="#51606C" stroke-width="2" stroke-linecap="round" stroke-linejoin="round"/>
<circle cx="299.82" cy="480.896" r="7.73558" fill="#FFCC48"/>
<path d="M380.399 890.165L589.259 634.246M589.259 634.246C595.276 623.932 607.18 600.983 606.664 591.7M589.259 634.246C594.416 627.8 609.114 614.907 626.648 614.907" stroke="#43515C" stroke-opacity="0.8" stroke-width="3" stroke-linecap="round" stroke-linejoin="round"/>
<path d="M125.124 747.057C120.182 744.693 107.332 738.29 95.471 731.586L56.1484 774.776L90.9586 800.562L125.124 747.057Z" fill="#43515C"/>
<defs>
<linearGradient id="paint0_linear_57_787" x1="349.999" y1="338.5" x2="27.9993" y2="381.5" gradientUnits="userSpaceOnUse">
<stop stop-color="#43515C"/>
<stop offset="1" stop-color="#43515C" stop-opacity="0"/>
</linearGradient>
<linearGradient id="paint1_linear_57_787" x1="226" y1="29" x2="357" y2="247" gradientUnits="userSpaceOnUse">
<stop stop-color="#263139" stop-opacity="0"/>
<stop offset="1" stop-color="#263139"/>
</linearGradient>
<linearGradient id="paint2_linear_57_787" x1="353.646" y1="224.26" x2="310.499" y2="861.5" gradientUnits="userSpaceOnUse">
<stop stop-color="#43515C"/>
<stop offset="1" stop-color="#43515C" stop-opacity="0"/>
</linearGradient>
<linearGradient id="paint3_linear_57_787" x1="353.646" y1="224.26" x2="310.499" y2="861.5" gradientUnits="userSpaceOnUse">
<stop stop-color="#43515C"/>
<stop offset="1" stop-color="#43515C" stop-opacity="0"/>
</linearGradient>
<linearGradient id="paint4_linear_57_787" x1="353.646" y1="224.26" x2="310.499" y2="861.5" gradientUnits="userSpaceOnUse">
<stop stop-color="#43515C"/>
<stop offset="1" stop-color="#43515C" stop-opacity="0"/>
</linearGradient>
<linearGradient id="paint5_linear_57_787" x1="353.646" y1="224.26" x2="310.499" y2="861.5" gradientUnits="userSpaceOnUse">
<stop stop-color="#43515C"/>
<stop offset="1" stop-color="#43515C" stop-opacity="0"/>
</linearGradient>
</defs>
</svg>
