<svg width="56" height="56" viewBox="0 0 56 56" fill="none" xmlns="http://www.w3.org/2000/svg">
<path fill-rule="evenodd" clip-rule="evenodd" d="M2.394 53.662L53.6037 53.6667C53.123 49.2124 49.9263 45.4767 45.5023 44.3707L35.8843 41.9651C35.4643 41.8601 35.1377 41.5357 35.0327 41.1157L33.9383 36.7314C33.8333 36.3114 33.9687 35.8681 34.2907 35.5811C36.764 33.3621 38.3997 30.0581 38.6633 26.7425C38.71 26.1335 39.2163 25.6668 39.8253 25.6668C40.5277 25.6668 41.0247 25.2258 41.097 24.6425L41.6803 19.9758C41.72 19.6468 41.622 19.3248 41.405 19.0752C41.181 18.8185 40.8707 18.6762 40.5323 18.6715C40.215 18.6668 39.914 18.5338 39.697 18.3052C39.4823 18.0718 39.368 17.7638 39.3843 17.4465L39.669 11.6109C39.6807 11.3215 39.802 11.0462 40.0073 10.8409L41.174 9.67419C41.9067 8.8972 42.574 7.6722 41.0247 5.30621C39.732 3.33455 37.415 2.33356 34.1367 2.33356C31.7473 2.33356 28.952 2.58322 26.3457 4.44988C26.1497 4.58988 25.9163 4.66455 25.6783 4.66688C17.0473 4.75321 16.3333 8.02687 16.3333 11.6669C16.3333 12.8078 16.7253 16.1608 16.8747 17.3532C16.9167 17.6868 16.814 18.0205 16.5923 18.2725C16.3707 18.5222 16.0533 18.6668 15.7173 18.6668H15.4747C15.1363 18.6668 14.826 18.8068 14.602 19.0612C14.378 19.3155 14.2777 19.6422 14.3173 19.9782L14.9007 24.6425C14.9753 25.2258 15.47 25.6668 16.058 25.6668H16.4383C17.045 25.6668 17.5513 26.1335 17.6003 26.7401C17.857 29.9554 19.418 33.1964 21.7747 35.4084C22.0827 35.6978 22.211 36.1294 22.1083 36.5401L20.965 41.1157C20.86 41.5357 20.5333 41.8601 20.1157 41.9651L10.4977 44.3707C6.07133 45.4767 2.87467 49.21 2.394 53.662ZM1.16667 56C0.856333 56 0.56 55.8763 0.340667 55.657C0.121333 55.44 0 55.1437 0 54.8333C0 48.8017 4.08333 43.5681 9.93067 42.1051L18.872 39.8721L19.6817 36.6194C17.4277 34.2908 15.876 31.1431 15.3907 27.9371C13.9323 27.6525 12.775 26.4555 12.586 24.9341L12.0027 20.2675C11.879 19.2712 12.1893 18.2678 12.852 17.5165C13.2767 17.0358 13.8203 16.6858 14.42 16.4968C14.2543 15.0735 14 12.7145 14 11.6669C14 7.1612 15.351 2.54589 25.291 2.33822C28.777 0.000233371 32.515 0.000233371 34.1367 0.000233371C38.2503 0.000233371 41.2253 1.35589 42.9753 4.02988C45.2527 7.5042 44.163 9.90053 42.8493 11.3005L41.9767 12.1732L41.762 16.5668C42.2987 16.7675 42.7817 17.1012 43.1643 17.5422C43.8153 18.2912 44.1187 19.2852 43.995 20.2675L43.4117 24.9341C43.2343 26.3598 42.2077 27.4985 40.8823 27.8695C40.397 31.2084 38.759 34.4611 36.3673 36.8294L37.128 39.8721L46.067 42.1051C51.9167 43.5681 56 48.8017 56 54.8287C56 55.4727 55.4773 55.9953 54.8333 55.9953L1.16667 56Z" fill="#FFCC48"/>
<path fill-rule="evenodd" clip-rule="evenodd" d="M50.1657 6.99997C49.5217 6.99997 48.9991 6.47731 48.9991 5.83331V2.33332H45.4991C44.8551 2.33332 44.3324 1.81066 44.3324 1.16666C44.3324 0.522665 44.8551 0 45.4991 0H50.1657C50.8097 0 51.3324 0.522665 51.3324 1.16666V5.83331C51.3324 6.47731 50.8097 6.99997 50.1657 6.99997Z" fill="#FFCC48"/>
<path fill-rule="evenodd" clip-rule="evenodd" d="M5.8324 6.99997C5.1884 6.99997 4.66573 6.47731 4.66573 5.83331V1.16666C4.66573 0.522665 5.1884 0 5.8324 0H10.4991C11.1431 0 11.6657 0.522665 11.6657 1.16666C11.6657 1.81066 11.1431 2.33332 10.4991 2.33332H6.99907V5.83331C6.99907 6.47731 6.4764 6.99997 5.8324 6.99997Z" fill="#FFCC48"/>
<path fill-rule="evenodd" clip-rule="evenodd" d="M50.1657 39.6665H45.4991C44.8551 39.6665 44.3324 39.1438 44.3324 38.4998C44.3324 37.8558 44.8551 37.3332 45.4991 37.3332H48.9991V33.8332C48.9991 33.1892 49.5217 32.6665 50.1657 32.6665C50.8097 32.6665 51.3324 33.1892 51.3324 33.8332V38.4998C51.3324 39.1438 50.8097 39.6665 50.1657 39.6665Z" fill="#FFCC48"/>
<path fill-rule="evenodd" clip-rule="evenodd" d="M10.4991 39.6665H5.8324C5.1884 39.6665 4.66573 39.1438 4.66573 38.4998V33.8332C4.66573 33.1892 5.1884 32.6665 5.8324 32.6665C6.4764 32.6665 6.99907 33.1892 6.99907 33.8332V37.3332H10.4991C11.1431 37.3332 11.6657 37.8558 11.6657 38.4998C11.6657 39.1438 11.1431 39.6665 10.4991 39.6665Z" fill="#FFCC48"/>
</svg>
