<svg width="164" height="71" viewBox="0 0 164 71" fill="none" xmlns="http://www.w3.org/2000/svg">
<path fill-rule="evenodd" clip-rule="evenodd" d="M38.8336 0H125.03C126.408 0 127.535 1.19002 127.535 2.6444V37.6071H125.714V2.6444C125.714 2.43439 125.636 2.24635 125.512 2.11459C125.388 1.98419 125.217 1.90266 125.03 1.90266H38.8333C38.6464 1.90266 38.4754 1.98392 38.3516 2.11459C38.2269 2.24608 38.1493 2.43439 38.1493 2.6444V37.6071H36.3284V2.6444C36.3284 1.18975 37.4556 0 38.8336 0ZM132.766 40.7113H125.973L125.972 40.7111V42.5407H132.766C134.651 42.5407 136.194 40.9982 136.194 39.1123V19.2591C136.194 17.6571 134.883 16.3462 133.281 16.3462H130.843V18.1762H133.281C133.577 18.1762 133.848 18.2986 134.045 18.4957C134.242 18.6925 134.365 18.9632 134.365 19.2594V39.1126C134.365 39.5501 134.184 39.9498 133.894 40.2403C133.603 40.5307 133.204 40.7113 132.766 40.7113ZM38.3935 42.541H38.3937L38.3935 42.5412V42.541ZM38.3935 42.541H31.4532C29.5673 42.541 28.0248 40.9985 28.0248 39.1126V19.2594C28.0248 17.6573 29.3353 16.3465 30.9374 16.3465H33.3759V18.1764H30.9374C30.6415 18.1764 30.3705 18.2989 30.1737 18.496C29.9766 18.6928 29.8541 18.9635 29.8541 19.2597V39.1128C29.8541 39.5507 30.0348 39.9504 30.3252 40.2405C30.6157 40.531 31.0153 40.7116 31.4529 40.7116H38.3935V42.541ZM0.177916 70.0418C0.289094 70.1527 0.422508 70.1972 0.577884 70.1972C0.733533 70.1972 0.844712 70.1527 0.955616 70.0418C1.06652 69.9306 1.11127 69.7972 1.11127 69.6418V67.9083H11.8445V69.6418C11.8445 69.7972 11.9112 69.9306 12.0224 70.0418C12.1333 70.1527 12.2445 70.1972 12.3998 70.1972C12.5555 70.1972 12.6889 70.1527 12.8001 70.0418C12.911 69.9306 12.9555 69.7972 12.9555 69.6418V67.3529C12.9555 67.1973 12.911 67.0639 12.8001 66.9529C12.6889 66.842 12.5555 66.7973 12.3998 66.7973H11.4887V52.8863C11.4887 52.7306 11.4443 52.575 11.3334 52.4641C11.2225 52.3529 11.0665 52.3084 10.9112 52.3084H5.13345C5.02255 52.3084 4.91109 52.3526 4.80019 52.4418C4.68929 52.5308 4.62258 52.642 4.60007 52.7529L1.62241 66.7973H0.577884C0.422508 66.7973 0.289094 66.842 0.177916 66.9529C0.0670122 67.0639 0.000305176 67.1973 0.000305176 67.3529V69.6418C0.000305176 69.7972 0.0670122 69.9306 0.177916 70.0418ZM10.3781 66.797H2.75616L5.6004 53.4194H10.3781V66.797ZM18.7337 67.5083C19.5559 67.9752 20.5112 68.1973 21.6224 68.1973C22.7337 68.1973 23.7115 67.9752 24.5337 67.5083C25.3558 67.0416 25.9779 66.3971 26.4448 65.5749C26.9115 64.7527 27.1336 63.7752 27.1336 62.6862V57.5308C27.1336 56.4196 26.9115 55.4417 26.4448 54.6196C25.9779 53.7974 25.3558 53.1753 24.5337 52.7084C23.7115 52.2417 22.7337 52.0194 21.6224 52.0194C20.5115 52.0194 19.5559 52.2417 18.7337 52.7084C17.9116 53.1753 17.267 53.7974 16.8003 54.6196C16.3336 55.4417 16.1113 56.4196 16.1113 57.5308V62.6862C16.1113 63.7752 16.3336 64.7527 16.8003 65.5749C17.267 66.3971 17.9116 67.0416 18.7337 67.5083ZM23.9558 66.5307C23.289 66.9085 22.5116 67.0861 21.6224 67.0861C20.7336 67.0861 19.9559 66.9085 19.3113 66.5307C18.6448 66.175 18.1334 65.6638 17.7779 64.9973C17.4001 64.3305 17.2225 63.5528 17.2225 62.6862V57.5308C17.2225 56.6416 17.4001 55.8639 17.7779 55.1974C18.1336 54.5529 18.6448 54.0417 19.3113 53.664C19.9559 53.3085 20.7336 53.1306 21.6224 53.1306C22.5116 53.1306 23.289 53.3085 23.9558 53.664C24.6004 54.042 25.1115 54.5529 25.4893 55.1974C25.8447 55.8639 26.0224 56.6416 26.0224 57.5308V62.6862C26.0224 63.5528 25.8447 64.3305 25.4893 64.9973C25.1112 65.6638 24.6004 66.1752 23.9558 66.5307ZM30.4448 68.0419C30.5557 68.1528 30.6669 68.1973 30.8225 68.1973H30.8231C30.9784 68.1973 31.1121 68.1528 31.223 68.0419C31.3339 67.9308 31.3784 67.8196 31.3784 67.6642V54.6418L36.1338 62.9527C36.2453 63.1528 36.4229 63.2418 36.623 63.2418C36.8673 63.2418 37.023 63.1528 37.1119 62.9527L41.8896 54.6418V67.6642C41.8896 67.8196 41.934 67.9308 42.0452 68.0419C42.1561 68.1528 42.2673 68.1973 42.4227 68.1973C42.5783 68.1973 42.734 68.1528 42.8452 68.0419C42.9561 67.9308 43.0005 67.8196 43.0005 67.6642V52.5753C43.0005 52.3087 42.8674 52.1308 42.5783 52.0196C42.4674 51.9974 42.356 51.9974 42.2451 52.0421C42.1116 52.0866 42.0227 52.1756 41.956 52.2865L36.6227 61.5755L31.3114 52.2865C31.1561 52.0421 30.9559 51.9529 30.6891 52.0196C30.4003 52.1308 30.2669 52.3084 30.2669 52.5753V67.6642C30.2669 67.8196 30.3336 67.9308 30.4448 68.0419ZM52.5114 68.0419C52.6223 68.1528 52.7334 68.1973 52.8888 68.1973C53.0445 68.1973 53.1779 68.1528 53.2888 68.0419C53.4 67.9308 53.4444 67.8196 53.4444 67.6642V60.3086H61.5777V67.6642C61.5777 67.8196 61.6445 67.9308 61.7554 68.0419C61.8663 68.1528 61.9777 68.1973 62.1331 68.1973C62.2885 68.1973 62.4221 68.1528 62.5331 68.0419C62.6217 67.9308 62.6662 67.8196 62.6662 67.6642V52.5753C62.6662 52.4196 62.622 52.2862 62.5331 52.1753C62.4221 52.0644 62.2885 52.0196 62.1331 52.0196C61.9777 52.0196 61.8663 52.0644 61.7554 52.1753C61.6445 52.2862 61.5777 52.4196 61.5777 52.5753V59.1974H53.4444V52.5753C53.4444 52.4196 53.4 52.2862 53.2888 52.1753C53.1779 52.0644 53.0445 52.0196 52.8888 52.0196C52.7334 52.0196 52.6223 52.0644 52.5114 52.1753C52.4002 52.2862 52.3335 52.4196 52.3335 52.5753V67.6642C52.3335 67.8196 52.4002 67.9308 52.5114 68.0419ZM65.2442 67.7971C65.3109 67.9527 65.3998 68.0417 65.5555 68.0861H65.5549C65.7103 68.1528 65.844 68.1528 65.9771 68.0861C66.1105 68.0194 66.1995 67.9083 66.2662 67.7529L67.8438 63.4861H72.4661C72.6215 63.4861 72.7326 63.4416 72.8438 63.3305C72.9547 63.2196 72.9992 63.1084 72.9992 62.9527C72.9992 62.7973 72.9547 62.6417 72.8438 62.5305C72.7326 62.4196 72.6215 62.3751 72.4661 62.3751H68.266L71.3549 54.1306L76.4438 67.7529C76.5105 67.9083 76.5995 68.0192 76.7548 68.0861C76.8882 68.1528 77.0217 68.1528 77.1551 68.0861C77.3104 68.0417 77.4213 67.9525 77.4881 67.7971C77.555 67.6639 77.555 67.5303 77.4881 67.3749L71.8882 52.3304C71.7773 52.0861 71.5994 51.9749 71.3551 51.9749C71.1108 51.9749 70.9329 52.0861 70.8217 52.3304L65.2442 67.3749C65.1775 67.5303 65.1775 67.6639 65.2442 67.7971ZM95.7553 68.0419C95.8665 68.1528 95.9777 68.1973 96.1331 68.1973V68.1968C96.2887 68.1968 96.4221 68.1523 96.533 68.0414C96.6442 67.9302 96.6887 67.819 96.6887 67.6637V52.5969C96.6887 52.3082 96.5553 52.1083 96.2887 52.0416C96.1778 52.0191 96.0664 52.0191 95.9555 52.0416C95.8218 52.0861 95.7331 52.175 95.6664 52.2859C94.7197 53.7975 93.8675 55.1516 93.1097 56.3558L93.096 56.3776C92.756 56.9179 92.435 57.4279 92.1331 57.9082C91.3938 59.0584 90.7638 60.0626 90.2253 60.9212C90.1727 61.005 90.121 61.0873 90.0702 61.1684C89.9373 61.3801 89.8103 61.5823 89.6889 61.7751C89.0443 62.7974 88.5331 63.5973 88.1554 64.1751C87.9492 64.5025 87.7828 64.7703 87.6488 64.9859L87.6474 64.9881C87.5365 65.1664 87.448 65.3089 87.3777 65.4195C87.2221 65.6638 87.1331 65.775 87.1331 65.775V52.5972C87.1331 52.4418 87.0887 52.2859 86.9777 52.175C86.8668 52.0641 86.7109 52.0194 86.5555 52.0194C86.3999 52.0194 86.2887 52.0641 86.1778 52.175C86.0669 52.2859 86.0222 52.4418 86.0222 52.5972V67.6639C86.0222 67.9305 86.1556 68.1084 86.4221 68.1751C86.5333 68.1973 86.6667 68.1973 86.7776 68.1751C86.8888 68.1306 86.9555 68.0639 87.0222 67.9527C88.3997 65.753 89.5779 63.8863 90.5777 62.3307C91.1671 61.3927 91.7001 60.5518 92.1717 59.8078L92.1728 59.806C92.4829 59.3167 92.7665 58.8693 93.022 58.4639C93.3711 57.9102 93.6811 57.4217 93.9519 56.9949L93.9557 56.989L93.9573 56.9864C94.1843 56.6288 94.3837 56.3146 94.5554 56.0418C94.7077 55.8089 94.8419 55.605 94.9581 55.4284L94.9593 55.4265C95.1308 55.1659 95.2628 54.9652 95.3554 54.8197C95.511 54.5751 95.5777 54.4642 95.5777 54.4642V67.6642C95.5777 67.8196 95.6444 67.9308 95.7553 68.0419ZM101.311 66.8418C102.267 67.8193 103.622 68.3082 105.355 68.3082V68.308C106.2 68.308 107 68.1303 107.755 67.7526C108.511 67.3968 109.155 66.8857 109.667 66.2192C109.778 66.1083 109.822 65.9523 109.8 65.797C109.778 65.6416 109.711 65.5304 109.6 65.4415C109.467 65.3306 109.333 65.2858 109.178 65.3083C109.022 65.3306 108.889 65.4195 108.8 65.5304C108.378 66.0635 107.867 66.4638 107.267 66.7525C106.666 67.0416 106.022 67.197 105.355 67.197C103.978 67.197 102.911 66.797 102.133 66.0193C101.355 65.2413 100.955 64.1749 100.955 62.7971V57.4858C100.955 56.108 101.355 55.019 102.133 54.2413C102.911 53.4636 103.978 53.0858 105.355 53.0858C106.022 53.0858 106.666 53.2415 107.267 53.5303C107.867 53.8194 108.378 54.2416 108.8 54.7749C108.889 54.8858 109.022 54.9303 109.178 54.9525C109.333 54.9745 109.467 54.9525 109.6 54.8636C109.711 54.7524 109.778 54.6413 109.8 54.4859C109.822 54.3302 109.778 54.1968 109.667 54.0859C109.155 53.4191 108.511 52.908 107.755 52.5302C107 52.1525 106.2 51.9746 105.355 51.9746C103.622 51.9746 102.266 52.4638 101.311 53.4191C100.333 54.3972 99.8442 55.7525 99.8442 57.4858V62.7971C99.8442 64.5306 100.333 65.8862 101.311 66.8418ZM111.911 67.7751C111.933 67.9305 112 68.0417 112.133 68.1084H112.133C112.245 68.2193 112.4 68.2415 112.556 68.2193C112.711 68.1971 112.822 68.1081 112.911 67.975L117.756 60.8192L122.622 67.975C122.711 68.1084 122.822 68.1971 122.978 68.2193C123.133 68.2415 123.267 68.2193 123.378 68.1084C123.489 68.0419 123.578 67.9305 123.622 67.7751C123.644 67.6195 123.622 67.4861 123.533 67.3529L118.445 59.8419L123.156 52.8863C123.222 52.7754 123.245 52.6194 123.222 52.4641C123.2 52.3084 123.111 52.1975 123 52.1086C122.889 52.0194 122.756 51.9971 122.6 52.0194C122.445 52.0419 122.334 52.1308 122.222 52.264L117.756 58.8641L113.289 52.264C113.2 52.1305 113.089 52.0419 112.933 52.0194C112.778 51.9974 112.622 52.0194 112.511 52.1086C112.378 52.1972 112.311 52.3084 112.289 52.4641C112.267 52.6194 112.289 52.7754 112.356 52.8863L117.089 59.8419L111.978 67.3529C111.911 67.4861 111.889 67.6195 111.911 67.7751ZM125.467 67.7971C125.533 67.9527 125.622 68.0417 125.778 68.0861H125.777C125.933 68.1528 126.066 68.1528 126.199 68.0861C126.333 68.0194 126.422 67.9083 126.488 67.7529L128.066 63.4861H132.688C132.844 63.4861 132.955 63.4416 133.066 63.3305C133.177 63.2196 133.221 63.1084 133.221 62.9527C133.221 62.7973 133.177 62.6417 133.066 62.5305C132.955 62.4196 132.844 62.3751 132.688 62.3751H128.488L131.577 54.1306L136.666 67.7529C136.733 67.9083 136.822 68.0192 136.977 68.0861C137.11 68.1528 137.244 68.1528 137.377 68.0861C137.533 68.0417 137.644 67.9525 137.71 67.7971C137.777 67.6639 137.777 67.5303 137.71 67.3749L132.111 52.3304C131.999 52.0861 131.822 51.9749 131.577 51.9749C131.333 51.9749 131.155 52.0861 131.044 52.3304L125.467 67.3749C125.4 67.5303 125.4 67.6639 125.467 67.7971ZM140.422 68.0419C140.533 68.1528 140.667 68.1973 140.822 68.1973L140.822 68.1971C140.978 68.1971 141.111 68.1526 141.222 68.0417C141.311 67.9305 141.355 67.8193 141.355 67.6639V60.8195H142.689C143.022 60.8195 143.355 60.7972 143.667 60.7305C143.955 60.6862 144.243 60.6198 144.531 60.5533L144.534 60.5526L149.689 67.9527C149.778 68.0642 149.889 68.1529 150.044 68.1973C150.2 68.2193 150.333 68.1973 150.444 68.1084C150.6 68.0419 150.689 67.9305 150.711 67.7529C150.733 67.5972 150.711 67.4638 150.644 67.3529L145.6 60.1304C146.444 59.6638 147.177 59.0192 147.822 58.2418C148.444 57.4638 148.955 56.5749 149.378 55.5974C149.778 54.6418 150.067 53.664 150.244 52.6862C150.266 52.5308 150.244 52.3749 150.155 52.264C150.067 52.1528 149.955 52.0641 149.8 52.0419C149.644 52.0196 149.511 52.0419 149.4 52.1308C149.266 52.2195 149.178 52.3307 149.155 52.4863C149 53.353 148.755 54.1974 148.4 55.064C148.044 55.9306 147.6 56.7086 147.044 57.3974C146.489 58.0864 145.867 58.642 145.133 59.0642C144.4 59.4864 143.6 59.7085 142.689 59.7085H141.355V52.5975C141.355 52.4421 141.311 52.2862 141.222 52.1753C141.111 52.0644 140.977 52.0196 140.822 52.0196C140.667 52.0196 140.533 52.0644 140.422 52.1753C140.311 52.2862 140.244 52.4421 140.244 52.5975V67.6642C140.244 67.8196 140.311 67.9308 140.422 68.0419ZM163.067 68.0419C163.177 68.1528 163.289 68.1973 163.444 68.1973V68.1968C163.6 68.1968 163.733 68.1523 163.844 68.0414C163.955 67.9302 164 67.819 164 67.6637V52.5969C164 52.3082 163.867 52.1083 163.6 52.0416C163.489 52.0191 163.377 52.0191 163.266 52.0416C163.133 52.0861 163.044 52.175 162.977 52.2859C162.039 53.7841 161.194 55.1276 160.441 56.3238L160.423 56.3529L160.419 56.3585C160.075 56.9059 159.75 57.4222 159.444 57.9082C158.712 59.0473 158.087 60.0433 157.552 60.8964C157.356 61.2084 157.172 61.5013 157 61.7751C156.356 62.7974 155.844 63.5973 155.466 64.1751C155.263 64.4981 155.098 64.7631 154.965 64.9771C154.851 65.1606 154.761 65.3066 154.689 65.4195C154.533 65.6638 154.444 65.775 154.444 65.775V52.5972C154.444 52.4418 154.4 52.2859 154.289 52.175C154.178 52.0641 154.022 52.0194 153.866 52.0194C153.711 52.0194 153.6 52.0641 153.489 52.175C153.378 52.2859 153.333 52.4418 153.333 52.5972V67.6639C153.333 67.9305 153.467 68.1084 153.733 68.1751C153.844 68.1973 153.978 68.1973 154.089 68.1751C154.2 68.1306 154.266 68.0639 154.333 67.9527C155.711 65.753 156.889 63.8863 157.889 62.3307C158.488 61.3769 159.029 60.5233 159.507 59.7701C159.808 59.2948 160.084 58.8594 160.333 58.4639C160.69 57.8982 161.006 57.4006 161.281 56.9673C161.503 56.6176 161.698 56.3097 161.867 56.0418C162.015 55.8152 162.146 55.616 162.26 55.4427L162.271 55.4256L162.272 55.4236C162.443 55.1644 162.574 54.9646 162.667 54.8197C162.822 54.5751 162.889 54.4642 162.889 54.4642V67.6642C162.889 67.8196 162.956 67.9308 163.067 68.0419ZM99.3935 12.6512V37.6062L99.3937 37.6065H101.215V13.2098L110.101 8.73632L119.168 13.2148V37.6062H120.989L120.987 12.6512C120.987 12.3163 120.801 11.9943 120.48 11.8364L110.499 6.90696C110.252 6.78535 109.953 6.77711 109.688 6.91053L99.9554 11.8101C99.6257 11.947 99.3935 12.2721 99.3935 12.6512ZM42.9042 12.6512V37.6062L42.9044 37.6065H44.7253V13.2098L53.6116 8.73632L62.6783 13.2148V37.6062H64.4991L64.4969 12.6512C64.4969 12.3163 64.3113 11.9943 63.9907 11.8364L54.0094 6.90696C53.7623 6.78535 53.4631 6.77711 53.1985 6.91053L43.4655 11.8101C43.1358 11.947 42.9042 12.2721 42.9042 12.6512ZM71.3543 12.6512V37.6062L71.3546 37.6065H73.1754V13.2098L82.0614 8.73632L91.1284 13.2148V37.6062H92.9492L92.9473 12.6512C92.947 12.3163 92.7615 11.9943 92.4408 11.8364L82.4595 6.90696C82.2124 6.78535 81.9135 6.77711 81.6486 6.91053L71.9159 11.8101C71.586 11.947 71.3543 12.2721 71.3543 12.6512Z" fill="url(#paint0_linear_1690_17927)"/>
<defs>
<linearGradient id="paint0_linear_1690_17927" x1="81.9464" y1="6.81312" x2="81.9464" y2="37.6065" gradientUnits="userSpaceOnUse">
<stop stop-color="#F4C446"/>
<stop offset="0.495833" stop-color="#C59108"/>
<stop offset="1" stop-color="#FFCE4E"/>
</linearGradient>
</defs>
</svg>
