<svg width="34" height="46" viewBox="0 0 34 46" fill="none" xmlns="http://www.w3.org/2000/svg">
<path fill-rule="evenodd" clip-rule="evenodd" d="M23.5 2C11.92 2 2.5 11.42 2.5 23C2.5 34.58 11.92 44 23.5 44C25.744 44 27.944 43.64 30.064 42.94C22.972 38.86 18.5 31.26 18.5 23C18.5 14.74 22.972 7.14 30.064 3.06C27.944 2.36 25.744 2 23.5 2ZM23.5 46C10.818 46 0.5 35.68 0.5 23C0.5 10.32 10.818 0 23.5 0C26.752 0 29.918 0.68 32.91 2.02C33.27 2.2 33.5 2.54 33.5 2.94C33.5 3.34 33.27 3.7 32.91 3.86C25.372 7.24 20.5 14.76 20.5 23C20.5 31.24 25.372 38.76 32.91 42.14C33.27 42.32 33.5 42.66 33.5 43.06C33.5 43.46 33.27 43.82 32.91 43.98C29.918 45.32 26.752 46 23.5 46ZM11.5 22C9.846 22 8.5 23.34 8.5 25C8.5 26.66 9.846 28 11.5 28C13.154 28 14.5 26.66 14.5 25C14.5 23.34 13.154 22 11.5 22ZM11.5 30C8.742 30 6.5 27.76 6.5 25C6.5 22.24 8.742 20 11.5 20C14.258 20 16.5 22.24 16.5 25C16.5 27.76 14.258 30 11.5 30ZM16.5 37C16.5 36.46 16.95 36 17.5 36C18.05 36 18.5 36.46 18.5 37C18.5 37.56 18.05 38 17.5 38C16.95 38 16.5 37.56 16.5 37ZM14.5 37C14.5 38.66 15.846 40 17.5 40C19.154 40 20.5 38.66 20.5 37C20.5 35.34 19.154 34 17.5 34C15.846 34 14.5 35.34 14.5 37Z" fill="#FFCC48"/>
</svg>
