<svg width="34" height="48" viewBox="0 0 34 48" fill="none" xmlns="http://www.w3.org/2000/svg">
<path fill-rule="evenodd" clip-rule="evenodd" d="M5 2C3.346 2 2 3.34 2 5V38H32V5C32 3.34 30.654 2 29 2H5ZM32 43V40H2V43C2 44.66 3.346 46 5 46H29C30.654 46 32 44.66 32 43ZM34 5V39V43C34 45.76 31.758 48 29 48H5C2.242 48 0 45.76 0 43V39V5C0 2.24 2.242 0 5 0H29C31.758 0 34 2.24 34 5ZM14 43C14 43.56 14.448 44 15 44H19C19.552 44 20 43.56 20 43C20 42.44 19.552 42 19 42H15C14.448 42 14 42.44 14 43ZM6 5C6 5.56 5.552 6 5 6C4.448 6 4 5.56 4 5C4 4.44 4.448 4 5 4C5.552 4 6 4.44 6 5ZM10 24.9991V13.7791L17 12.0391L24 13.7791V24.9991C24 26.1391 20.386 28.4391 17 29.9191C13.612 28.4391 10 26.1391 10 24.9991ZM16.616 31.9198C16.738 31.9798 16.87 31.9998 17 31.9998C17.13 31.9998 17.262 31.9798 17.384 31.9198C19.406 31.0798 26 28.0998 26 24.9998V12.9998C26 12.5398 25.688 12.1398 25.242 12.0398L17.242 10.0398C17.082 9.99977 16.918 9.99977 16.758 10.0398L8.758 12.0398C8.312 12.1398 8 12.5398 8 12.9998V24.9998C8 28.0998 14.594 31.0798 16.616 31.9198ZM14 19.9984H16V16.3984L14 16.8984V19.9984ZM16 21.9993H13C12.448 21.9993 12 21.5593 12 20.9993V16.1193C12 15.6593 12.312 15.2593 12.758 15.1593L16.758 14.1593C17.056 14.0793 17.372 14.1393 17.616 14.3393C17.858 14.5193 18 14.8193 18 15.1193V20H21C21.552 20 22 20.44 22 21V24.18C22 24.46 21.88 24.72 21.67 24.92C20.884 25.62 19.264 26.62 17.44 27.5C17.3 27.58 17.15 27.6 17 27.6C16.816 27.6 16.632 27.56 16.47 27.46C16.178 27.28 16 26.96 16 26.6V21.9993ZM18 24.96V22H20V23.7C19.522 24.06 18.812 24.5 18 24.96Z" fill="#FFCC48"/>
</svg>
