<svg width="40" height="56" viewBox="0 0 40 56" fill="none" xmlns="http://www.w3.org/2000/svg">
<path fill-rule="evenodd" clip-rule="evenodd" d="M7.06055 15.1668C7.06055 8.09675 12.8653 2.33342 20.0017 2.33342C27.1382 2.33342 32.9429 8.09675 32.9429 15.1668C32.9429 21.3268 23.2276 39.5268 20.0017 45.4068C16.7758 39.5268 7.06055 21.3268 7.06055 15.1668ZM18.9753 48.4167C19.1823 48.7667 19.5753 49 20.0012 49C20.427 49 20.82 48.7667 21.027 48.4167C21.0433 48.3874 21.0697 48.3402 21.1056 48.2759C22.3618 46.0296 35.2953 22.9019 35.2953 15.1667C35.2953 6.81333 28.4341 0 20.0012 0C11.5682 0 4.70703 6.81333 4.70703 15.1667C4.70703 22.9018 17.6404 46.0294 18.8966 48.2759C18.9326 48.3402 18.959 48.3874 18.9753 48.4167ZM19.9995 9.33345C16.7572 9.33345 14.1172 11.9468 14.1172 15.1668C14.1172 18.3868 16.7572 21.0001 19.9995 21.0001C23.2419 21.0001 25.8819 18.3868 25.8819 15.1668C25.8819 11.9468 23.2419 9.33345 19.9995 9.33345ZM19.999 23.3334C15.4578 23.3334 11.7637 19.67 11.7637 15.1667C11.7637 10.6633 15.4578 7.00002 19.999 7.00002C24.5401 7.00002 28.2343 10.6633 28.2343 15.1667C28.2343 19.67 24.5401 23.3334 19.999 23.3334ZM20 56C13.0824 56 0 54.7867 0 50.1667C0 45.8733 11.3953 44.7533 14.8894 44.52C15.5271 44.4733 16.0988 44.94 16.1435 45.5933C16.1882 46.2467 15.6988 46.7833 15.0518 46.83C6.12941 47.46 2.35294 49.4667 2.35294 50.1667C2.35294 51.1933 8.53647 53.6667 20 53.6667C31.4635 53.6667 37.6471 51.1933 37.6471 50.1667C37.6471 49.4667 33.8706 47.46 24.9482 46.83C24.3012 46.7833 23.8118 46.2467 23.8565 45.5933C23.9012 44.94 24.4612 44.4733 25.1106 44.52C28.6047 44.7533 40 45.8733 40 50.1667C40 54.7867 26.9176 56 20 56Z" fill="#AC7E65"/>
</svg>
