<svg width="290" height="109" viewBox="0 0 290 109" fill="none" xmlns="http://www.w3.org/2000/svg">
<path d="M2 0.5C1.16667 0.5 0.5 1.16667 0.5 2C0.5 2.83333 1.16667 3.5 2 3.5C2.83333 3.5 3.5 2.83333 3.5 2C3.5 1.16667 2.83333 0.5 2 0.5Z" fill="white"/>
<path d="M289.354 104.854C289.549 104.658 289.549 104.342 289.354 104.146L286.172 100.964C285.976 100.769 285.66 100.769 285.464 100.964C285.269 101.16 285.269 101.476 285.464 101.672L288.293 104.5L285.464 107.328C285.269 107.524 285.269 107.84 285.464 108.036C285.66 108.231 285.976 108.231 286.172 108.036L289.354 104.854ZM1 2C1 1.44281 1.44281 1 2 1V0C0.890524 0 0 0.890524 0 2H1ZM2 1C2.55719 1 3 1.44281 3 2H4C4 0.890524 3.10948 0 2 0V1ZM3 2C3 2.55719 2.55719 3 2 3V4C3.10948 4 4 3.10948 4 2H3ZM2 3C1.44281 3 1 2.55719 1 2H0C0 3.10948 0.890524 4 2 4V3ZM3.5 2.5H125.5V1.5H3.5V2.5ZM145 22V84.5H146V22H145ZM165.5 105H289V104H165.5V105ZM145 84.5C145 95.8218 154.178 105 165.5 105V104C154.73 104 146 95.2695 146 84.5H145ZM125.5 2.5C136.27 2.5 145 11.2304 145 22H146C146 10.6782 136.822 1.5 125.5 1.5V2.5Z" fill="#FFCC48"/>
</svg>
