<svg width="290" height="26" viewBox="0 0 290 26" fill="none" xmlns="http://www.w3.org/2000/svg">
<path d="M2 22.5C1.16667 22.5 0.5 23.1667 0.5 24C0.5 24.8333 1.16667 25.5 2 25.5C2.83333 25.5 3.5 24.8333 3.5 24C3.5 23.1667 2.83333 22.5 2 22.5Z" fill="white"/>
<path d="M289.354 4.85355C289.549 4.65829 289.549 4.34171 289.354 4.14645L286.172 0.964466C285.976 0.769204 285.66 0.769204 285.464 0.964466C285.269 1.15973 285.269 1.47631 285.464 1.67157L288.293 4.5L285.464 7.32843C285.269 7.52369 285.269 7.84027 285.464 8.03553C285.66 8.2308 285.976 8.2308 286.172 8.03553L289.354 4.85355ZM1 24C1 23.4428 1.44281 23 2 23V22C0.890524 22 0 22.8905 0 24H1ZM2 23C2.55719 23 3 23.4428 3 24H4C4 22.8905 3.10948 22 2 22V23ZM3 24C3 24.5572 2.55719 25 2 25V26C3.10948 26 4 25.1095 4 24H3ZM2 25C1.44281 25 1 24.5572 1 24H0C0 25.1095 0.890524 26 2 26V25ZM3.5 24.5H135.75V23.5H3.5V24.5ZM155.25 5H289V4H155.25V5ZM146 14.25C146 9.14137 150.141 5 155.25 5V4C149.589 4 145 8.58908 145 14.25H146ZM135.75 24.5C141.411 24.5 146 19.9109 146 14.25H145C145 19.3586 140.859 23.5 135.75 23.5V24.5Z" fill="#FFCC48"/>
</svg>
