<svg width="290" height="69" viewBox="0 0 290 69" fill="none" xmlns="http://www.w3.org/2000/svg">
<path d="M2 0.5C1.16667 0.5 0.5 1.16667 0.5 2C0.5 2.83333 1.16667 3.5 2 3.5C2.83333 3.5 3.5 2.83333 3.5 2C3.5 1.16667 2.83333 0.5 2 0.5Z" fill="white"/>
<path d="M289.354 64.8536C289.549 64.6583 289.549 64.3417 289.354 64.1464L286.172 60.9645C285.976 60.7692 285.66 60.7692 285.464 60.9645C285.269 61.1597 285.269 61.4763 285.464 61.6716L288.293 64.5L285.464 67.3284C285.269 67.5237 285.269 67.8403 285.464 68.0355C285.66 68.2308 285.976 68.2308 286.172 68.0355L289.354 64.8536ZM1 2C1 1.44281 1.44281 1 2 1V0C0.890524 0 0 0.890524 0 2H1ZM2 1C2.55719 1 3 1.44281 3 2H4C4 0.890524 3.10948 0 2 0V1ZM3 2C3 2.55719 2.55719 3 2 3V4C3.10948 4 4 3.10948 4 2H3ZM2 3C1.44281 3 1 2.55719 1 2H0C0 3.10948 0.890524 4 2 4V3ZM3.5 2.5H125.5V1.5H3.5V2.5ZM145 22V44.5H146V22H145ZM165.5 65H289V64H165.5V65ZM145 44.5C145 55.8218 154.178 65 165.5 65V64C154.73 64 146 55.2696 146 44.5H145ZM125.5 2.5C136.27 2.5 145 11.2304 145 22H146C146 10.6782 136.822 1.5 125.5 1.5V2.5Z" fill="#FFCC48"/>
</svg>
