<svg width="290" height="87" viewBox="0 0 290 87" fill="none" xmlns="http://www.w3.org/2000/svg">
<path d="M2 83.5C1.16667 83.5 0.5 84.1667 0.5 85C0.5 85.8333 1.16667 86.5 2 86.5C2.83333 86.5 3.5 85.8333 3.5 85C3.5 84.1667 2.83333 83.5 2 83.5Z" fill="white"/>
<path d="M289.354 4.85355C289.549 4.65829 289.549 4.34171 289.354 4.14645L286.172 0.964466C285.976 0.769204 285.66 0.769204 285.464 0.964466C285.269 1.15973 285.269 1.47631 285.464 1.67157L288.293 4.5L285.464 7.32843C285.269 7.52369 285.269 7.84027 285.464 8.03553C285.66 8.2308 285.976 8.2308 286.172 8.03553L289.354 4.85355ZM1 85C1 84.4428 1.44281 84 2 84V83C0.890525 83 0 83.8905 0 85H1ZM2 84C2.55719 84 3 84.4428 3 85H4C4 83.8905 3.10948 83 2 83V84ZM3 85C3 85.5572 2.55719 86 2 86V87C3.10948 87 4 86.1095 4 85H3ZM2 86C1.44281 86 1 85.5572 1 85H0C0 86.1095 0.890525 87 2 87V86ZM3.5 85.5H125.5V84.5H3.5V85.5ZM146 65V24.5H145V65H146ZM165.5 5H289V4H165.5V5ZM146 24.5C146 13.7304 154.73 5 165.5 5V4C154.178 4 145 13.1782 145 24.5H146ZM125.5 85.5C136.822 85.5 146 76.3218 146 65H145C145 75.7695 136.27 84.5 125.5 84.5V85.5Z" fill="#FFCC48"/>
</svg>
